<svg xmlns="http://www.w3.org/2000/svg" viewBox="0 0 710 110" enable-background="new 0 0 710 110"><style type="text/css">.main{fill:#fff;} .st0{fill:#FDA900;} .st1{fill:#F3003F;} .st2{fill:#009B91;} .st3{fill:#8D46A7;}</style><path class="main" d="M148.7 23.9c9.5 0 17.3 2.8 23.4 8.4 6.1 5.6 9.1 12.6 9.1 21.1 0 8.5-3.1 15.6-9.3 21.3-6.2 5.7-14 8.6-23.5 8.6h-19.8v-59.4h20.1zm-10.3 50.9h10.6c6.6 0 11.9-2 16.2-6 4.2-4 6.3-9.1 6.3-15.2 0-6-2.1-11.1-6.4-15.1-4.2-4-9.6-6.1-16.1-6.1h-10.6v42.4zM198.2 63c.3 3.8 1.8 7 4.4 9.4 2.7 2.4 6 3.6 9.9 3.6 1.7 0 3.3-.2 4.8-.7 1.5-.5 2.7-1 3.7-1.6 1-.6 1.9-1.3 2.6-1.9.7-.7 1.2-1.2 1.5-1.7l.5-.7 5.7 5.2c-.2.3-.4.6-.7 1.1-.3.4-1 1.2-2.2 2.2-1.2 1.1-2.4 2-3.8 2.9-1.4.8-3.2 1.6-5.5 2.3-2.3.7-4.7 1-7.3 1-6.6 0-12.1-2.1-16.5-6.4s-6.6-9.6-6.6-16 2.2-11.8 6.7-16.2c4.5-4.4 10-6.6 16.5-6.6 5.9 0 11 2.1 15.1 6.2 4.2 4.2 6.2 9.1 6.2 15l-.4 2.8h-34.6zm4.9-14c-2.4 1.9-4 4.5-4.7 7.6h26c-.5-3.1-1.9-5.6-4.3-7.6-2.3-2-5.1-2.9-8.3-2.9-3.4 0-6.3.9-8.7 2.9zM242.7 39.8h8.2l.5 7.4c3.1-5.5 8.1-8.2 14.8-8.2 3.3 0 6.3.9 8.9 2.6 2.6 1.7 4.6 4.3 5.8 7.6 1.4-3.3 3.5-5.9 6.3-7.6 2.8-1.7 5.9-2.6 9.5-2.6 4.7 0 8.6 1.6 11.7 4.8 3.1 3.2 4.6 7.8 4.6 13.7v25.8h-9.3v-22.7c0-4.4-.9-7.6-2.8-9.8-1.9-2.2-4.3-3.3-7.2-3.3-3.2 0-5.9 1.1-8 3.2-2.1 2.1-3.2 5.4-3.2 9.8v22.8h-9.3v-22.7c0-4.4-.9-7.6-2.8-9.8s-4.3-3.3-7.2-3.3c-3.2 0-5.9 1.1-8 3.2s-3.2 5.4-3.2 9.8v22.8h-9.3v-43.5zM361.9 45.4c4.4 4.3 6.6 9.6 6.6 16s-2.2 11.8-6.7 16.2-10 6.6-16.7 6.6c-6.6 0-12.1-2.1-16.5-6.4s-6.6-9.6-6.6-16 2.2-11.8 6.7-16.2c4.5-4.4 10-6.6 16.7-6.6 6.6 0 12.1 2.1 16.5 6.4zm-6.7 26.2c2.7-2.7 4-6 4-10s-1.3-7.3-4-10-6-4-9.9-4c-4 0-7.3 1.3-9.9 4-2.7 2.7-4 6-4 10s1.3 7.4 4 10c2.7 2.7 6 4 9.9 4 3.9 0 7.2-1.3 9.9-4zM415.7 76.3c-.2.2-.4.5-.7.8-.3.3-1 1-2.1 1.9s-2.2 1.7-3.4 2.4-2.8 1.3-4.9 1.9c-2 .6-4.1.8-6.3.8-6.6 0-12.1-2.1-16.5-6.4s-6.6-9.6-6.6-16 2.2-11.8 6.7-16.2 10-6.6 16.7-6.6c2.1 0 4.1.2 6 .7 1.9.5 3.5 1.1 4.7 1.8 1.2.7 2.3 1.4 3.3 2.1 1 .7 1.7 1.3 2.1 1.7l.6.8-6.4 6.2c-.3-.3-.7-.8-1.2-1.3s-1.7-1.2-3.5-2.1-3.8-1.3-5.9-1.3c-4 0-7.3 1.3-9.9 4s-4 6-4 10 1.3 7.4 4 10 6 4 9.9 4c1.4 0 2.8-.2 4-.6 1.3-.4 2.3-.8 3.1-1.3.8-.5 1.5-1 2.1-1.5.6-.5 1-.9 1.3-1.3l.3-.6 6.6 6.1zM423.8 39.8h8.3l.6 9.2c3.1-6.7 8.8-10 17-10l-.2 9.5h-1.9c-4.6 0-8.2 1.3-10.8 4-2.5 2.7-3.8 6.8-3.8 12.3v18.6h-9.3v-43.6zM482.8 61.2v-2.7c0-3.8-1-6.7-3.1-8.7-2.1-2-4.9-3-8.3-3-2.2 0-4.3.3-6.2 1-2 .7-3.3 1.3-4.2 2l-1.3.9-4-6c.2-.2.4-.4.7-.6.3-.3 1-.7 2.1-1.4s2.3-1.2 3.5-1.7c1.2-.5 2.9-1 4.8-1.4 2-.4 4-.6 6.1-.6 6 0 10.7 1.7 14.1 5.1 3.4 3.4 5.1 8.2 5.1 14.5v24.8h-7.2l-.8-4.2c-3.3 3.4-8 5.1-14.1 5.1-5.2 0-9.3-1.2-12.3-3.7s-4.5-5.7-4.5-9.6 1.6-7.2 4.7-9.8 7.3-3.9 12.4-3.9c5.1-.1 9.3 1.2 12.5 3.9zm-2.4 14.5c1.9-1.4 2.8-3.1 2.8-5.2s-.9-3.8-2.8-5.2c-1.9-1.4-4.5-2.1-7.8-2.1-3.1 0-5.6.7-7.4 2.1-1.8 1.4-2.7 3.1-2.7 5.2 0 2 .9 3.7 2.7 5.1 1.8 1.4 4.3 2.1 7.4 2.1 3.3 0 5.9-.7 7.8-2zM537.6 76.3c-.2.2-.4.5-.7.8-.3.3-1 1-2.1 1.9s-2.2 1.7-3.4 2.4-2.8 1.3-4.9 1.9c-2 .6-4.1.8-6.3.8-6.6 0-12.1-2.1-16.5-6.4s-6.6-9.6-6.6-16 2.2-11.8 6.7-16.2 10-6.6 16.7-6.6c2.1 0 4.1.2 6 .7 1.9.5 3.5 1.1 4.7 1.8 1.2.7 2.3 1.4 3.3 2.1 1 .7 1.7 1.3 2.1 1.7l.6.8-6.4 6.2c-.3-.3-.7-.8-1.2-1.3s-1.7-1.2-3.5-2.1-3.8-1.3-5.9-1.3c-4 0-7.3 1.3-9.9 4s-4 6-4 10 1.3 7.4 4 10 6 4 9.9 4c1.4 0 2.8-.2 4-.6 1.3-.4 2.3-.8 3.1-1.3.8-.5 1.5-1 2.1-1.5.6-.5 1-.9 1.3-1.3l.3-.6 6.6 6.1zM539.8 39.8h10.3l12.3 32.5 12.4-32.5h9.9l-18.1 43.9c-3.8 9.3-9.6 14-17.3 14-1.8 0-3.5-.2-5.1-.6-1.6-.4-2.8-.8-3.4-1.2l-1-.6 3-7.5c1.4 1 3.4 1.5 6.2 1.5 3.8 0 6.7-2.1 8.6-6.4l-17.8-43.1zM597.7 33.2c5.8-5.8 12.9-8.7 21.2-8.7 8.3 0 15.4 2.9 21.1 8.6 5.7 5.7 8.6 12.8 8.6 21.1s-2.9 15.4-8.7 21.2c-5.8 5.8-12.9 8.7-21.2 8.7-8.3 0-15.4-2.9-21.1-8.6-5.7-5.7-8.6-12.8-8.6-21.1s2.9-15.4 8.7-21.2zm2.3 40.2c5.1 5.1 11.4 7.7 18.9 7.7 7.5 0 13.8-2.6 18.9-7.7s7.7-11.5 7.7-19.1-2.6-13.9-7.7-19.1c-5.1-5.1-11.4-7.7-18.9-7.7-7.5 0-13.8 2.6-18.9 7.7-5.1 5.1-7.7 11.5-7.7 19.1s2.5 14 7.7 19.1zM666.2 46c2.3 2.1 5.9 3.8 10.8 5.3 6.1 1.8 10.6 4.1 13.6 7 3 2.8 4.5 6.3 4.5 10.5 0 4.5-1.7 8.2-5 11.1-3.3 2.9-7.8 4.4-13.5 4.4-2.5 0-4.9-.3-7.1-.8-2.2-.5-4.1-1.1-5.6-1.9s-2.8-1.4-3.9-2.2c-1.1-.7-1.9-1.3-2.4-1.8l-.7-.8 2.3-2.4.7.7c.3.3 1 .9 2.2 1.7 1.1.8 2.3 1.5 3.6 2.1 1.3.6 2.9 1.1 5 1.6s4.2.7 6.5.7c4.3 0 7.8-1.1 10.5-3.4s4-5.2 4-8.6c0-3.6-1.2-6.5-3.7-8.8-2.5-2.3-6.7-4.4-12.8-6.3-5-1.5-8.9-3.6-11.7-6.2-2.8-2.6-4.2-5.6-4.2-9.1 0-4 1.6-7.4 4.9-10.2 3.2-2.7 7.5-4.1 12.8-4.1 3.4 0 6.6.5 9.5 1.6 2.9 1.1 4.9 2.1 6.1 3.1l1.7 1.6-2.3 2.4c-.4-.4-1-1-1.7-1.6s-2.4-1.4-4.9-2.4c-2.5-1-5.2-1.5-8.1-1.5-4.6 0-8.2 1.1-10.7 3.3-2.5 2.2-3.8 4.7-3.8 7.5 0 2.9 1.1 5.4 3.4 7.5z"/><path class="st0" d="M49.8 23.2c1.2 0 2.4 0 3.6.1-3-8.6-11.2-14.8-20.8-14.8-12.2 0-22 9.9-22 22 0 10.8 7.8 19.8 18.1 21.7v-29h21.1zM38.9 32.1v19.5c8.5-2.6 14.8-10.1 15.6-19.2-1.4-.2-2.9-.3-4.4-.3h-11.2z"/><path class="st1" d="M54.7 32.5c.9 10.2 8.8 18.4 18.9 19.8-.5-5.4-2.7-10-6.6-13.8-3.4-3.2-7.5-5.2-12.3-6zM98.7 30.5c0-12.2-9.9-22-22-22-9.8 0-18 6.3-20.9 15.1 7.4 1 13.6 3.8 18.7 8.5 5.7 5.2 8.8 11.7 9.5 19.3 8.5-3.1 14.7-11.3 14.7-20.9z"/><path class="st2" d="M73.8 54.5c0-.6 0-1.2-.1-1.7-10.7 1.5-19 10.7-19 21.8 0 .6 0 1.3.1 1.9 4.8-.8 8.9-2.8 12.3-6 4.4-4.2 6.7-9.6 6.7-16zM84 53.8v.5c0 8.9-3.3 16.4-9.8 22.5-4.7 4.4-10.4 7.1-16.9 8.3 3.7 6.9 11 11.5 19.4 11.5 12.2 0 22.1-9.9 22.1-22 0-9.6-6.2-17.8-14.8-20.8z"/><path class="st3" d="M50 76.9c1.5 0 3-.1 4.4-.3.1-.6.1-1.2.1-1.9 0-10-6.6-18.4-15.7-21.1v23.3h11.2zM49.4 85.8h-20.8v-32.8c-10.3 1.9-18.1 10.9-18.1 21.7 0 12.2 9.9 22 22 22 8.1 0 15.2-4.4 19.1-11-.7.1-1.5.1-2.2.1z"/></svg>