<?xml version="1.0" encoding="utf-8"?>
<!-- Generator: Adobe Illustrator 19.1.0, SVG Export Plug-In . SVG Version: 6.00 Build 0)  -->
<svg version="1.1" id="Layer_1" xmlns="http://www.w3.org/2000/svg" xmlns:xlink="http://www.w3.org/1999/xlink" x="0px" y="0px"
	 viewBox="0 0 710 110" style="enable-background:new 0 0 710 110;" xml:space="preserve">
<style type="text/css">
	.main{fill:#000;}
	.st0{fill:#FDA900;}
	.st1{fill:#F3003F;}
	.st2{fill:#009B91;}
	.st3{fill:#8D46A7;}
</style>
<g>
	<path class="main" d="M148.7,23.9c9.5,0,17.3,2.8,23.4,8.4c6.1,5.6,9.1,12.6,9.1,21.1c0,8.5-3.1,15.6-9.3,21.3c-6.2,5.7-14,8.6-23.5,8.6h-19.8
		V23.9H148.7z M138.4,74.8H149c6.6,0,11.9-2,16.2-6c4.2-4,6.3-9.1,6.3-15.2c0-6-2.1-11.1-6.4-15.1c-4.2-4-9.6-6.1-16.1-6.1h-10.6
		V74.8z"/>
	<path class="main" d="M198.2,63c0.3,3.8,1.8,7,4.4,9.4c2.7,2.4,6,3.6,9.9,3.6c1.7,0,3.3-0.2,4.8-0.7c1.5-0.5,2.7-1,3.7-1.6
		c1-0.6,1.9-1.3,2.6-1.9c0.7-0.7,1.2-1.2,1.5-1.7l0.5-0.7l5.7,5.2c-0.2,0.3-0.4,0.6-0.7,1.1c-0.3,0.4-1,1.2-2.2,2.2
		c-1.2,1.1-2.4,2-3.8,2.9c-1.4,0.8-3.2,1.6-5.5,2.3c-2.3,0.7-4.7,1-7.3,1c-6.6,0-12.1-2.1-16.5-6.4s-6.6-9.6-6.6-16
		c0-6.4,2.2-11.8,6.7-16.2c4.5-4.4,10-6.6,16.5-6.6c5.9,0,11,2.1,15.1,6.2c4.2,4.2,6.2,9.1,6.2,15l-0.4,2.8H198.2z M203.1,49
		c-2.4,1.9-4,4.5-4.7,7.6h26c-0.5-3.1-1.9-5.6-4.3-7.6c-2.3-2-5.1-2.9-8.3-2.9C208.4,46.1,205.5,47,203.1,49z"/>
	<path class="main" d="M242.7,39.8h8.2l0.5,7.4c3.1-5.5,8.1-8.2,14.8-8.2c3.3,0,6.3,0.9,8.9,2.6c2.6,1.7,4.6,4.3,5.8,7.6c1.4-3.3,3.5-5.9,6.3-7.6
		c2.8-1.7,5.9-2.6,9.5-2.6c4.7,0,8.6,1.6,11.7,4.8c3.1,3.2,4.6,7.8,4.6,13.7v25.8h-9.3V60.6c0-4.4-0.9-7.6-2.8-9.8
		c-1.9-2.2-4.3-3.3-7.2-3.3c-3.2,0-5.9,1.1-8,3.2c-2.1,2.1-3.2,5.4-3.2,9.8v22.8h-9.3V60.6c0-4.4-0.9-7.6-2.8-9.8s-4.3-3.3-7.2-3.3
		c-3.2,0-5.9,1.1-8,3.2s-3.2,5.4-3.2,9.8v22.8h-9.3V39.8z"/>
	<path class="main" d="M361.9,45.4c4.4,4.3,6.6,9.6,6.6,16c0,6.4-2.2,11.8-6.7,16.2s-10,6.6-16.7,6.6c-6.6,0-12.1-2.1-16.5-6.4s-6.6-9.6-6.6-16
		c0-6.4,2.2-11.8,6.7-16.2c4.5-4.4,10-6.6,16.7-6.6C352,39,357.5,41.1,361.9,45.4z M355.2,71.6c2.7-2.7,4-6,4-10c0-4-1.3-7.3-4-10
		c-2.7-2.7-6-4-9.9-4c-4,0-7.3,1.3-9.9,4c-2.7,2.7-4,6-4,10c0,4,1.3,7.4,4,10c2.7,2.7,6,4,9.9,4C349.2,75.6,352.5,74.3,355.2,71.6z"
		/>
	<path class="main" d="M415.7,76.3c-0.2,0.2-0.4,0.5-0.7,0.8c-0.3,0.3-1,1-2.1,1.9s-2.2,1.7-3.4,2.4s-2.8,1.3-4.9,1.9c-2,0.6-4.1,0.8-6.3,0.8
		c-6.6,0-12.1-2.1-16.5-6.4s-6.6-9.6-6.6-16c0-6.4,2.2-11.8,6.7-16.2s10-6.6,16.7-6.6c2.1,0,4.1,0.2,6,0.7c1.9,0.5,3.5,1.1,4.7,1.8
		c1.2,0.7,2.3,1.4,3.3,2.1c1,0.7,1.7,1.3,2.1,1.7l0.6,0.8l-6.4,6.2c-0.3-0.3-0.7-0.8-1.2-1.3s-1.7-1.2-3.5-2.1s-3.8-1.3-5.9-1.3
		c-4,0-7.3,1.3-9.9,4s-4,6-4,10c0,4,1.3,7.4,4,10s6,4,9.9,4c1.4,0,2.8-0.2,4-0.6c1.3-0.4,2.3-0.8,3.1-1.3c0.8-0.5,1.5-1,2.1-1.5
		c0.6-0.5,1-0.9,1.3-1.3l0.3-0.6L415.7,76.3z"/>
	<path class="main" d="M423.8,39.8h8.3l0.6,9.2c3.1-6.7,8.8-10,17-10l-0.2,9.5h-1.9c-4.6,0-8.2,1.3-10.8,4c-2.5,2.7-3.8,6.8-3.8,12.3v18.6h-9.3
		V39.8z"/>
	<path class="main" d="M482.8,61.2v-2.7c0-3.8-1-6.7-3.1-8.7c-2.1-2-4.9-3-8.3-3c-2.2,0-4.3,0.3-6.2,1c-2,0.7-3.3,1.3-4.2,2l-1.3,0.9l-4-6
		c0.2-0.2,0.4-0.4,0.7-0.6c0.3-0.3,1-0.7,2.1-1.4c1.1-0.7,2.3-1.2,3.5-1.7c1.2-0.5,2.9-1,4.8-1.4c2-0.4,4-0.6,6.1-0.6
		c6,0,10.7,1.7,14.1,5.1c3.4,3.4,5.1,8.2,5.1,14.5v24.8h-7.2l-0.8-4.2c-3.3,3.4-8,5.1-14.1,5.1c-5.2,0-9.3-1.2-12.3-3.7
		c-3-2.5-4.5-5.7-4.5-9.6s1.6-7.2,4.7-9.8s7.3-3.9,12.4-3.9C475.4,57.2,479.6,58.5,482.8,61.2z M480.4,75.7c1.9-1.4,2.8-3.1,2.8-5.2
		c0-2.1-0.9-3.8-2.8-5.2c-1.9-1.4-4.5-2.1-7.8-2.1c-3.1,0-5.6,0.7-7.4,2.1c-1.8,1.4-2.7,3.1-2.7,5.2c0,2,0.9,3.7,2.7,5.1
		c1.8,1.4,4.3,2.1,7.4,2.1C475.9,77.7,478.5,77,480.4,75.7z"/>
	<path class="main" d="M537.6,76.3c-0.2,0.2-0.4,0.5-0.7,0.8c-0.3,0.3-1,1-2.1,1.9s-2.2,1.7-3.4,2.4s-2.8,1.3-4.9,1.9c-2,0.6-4.1,0.8-6.3,0.8
		c-6.6,0-12.1-2.1-16.5-6.4s-6.6-9.6-6.6-16c0-6.4,2.2-11.8,6.7-16.2s10-6.6,16.7-6.6c2.1,0,4.1,0.2,6,0.7c1.9,0.5,3.5,1.1,4.7,1.8
		c1.2,0.7,2.3,1.4,3.3,2.1c1,0.7,1.7,1.3,2.1,1.7l0.6,0.8l-6.4,6.2c-0.3-0.3-0.7-0.8-1.2-1.3s-1.7-1.2-3.5-2.1s-3.8-1.3-5.9-1.3
		c-4,0-7.3,1.3-9.9,4s-4,6-4,10c0,4,1.3,7.4,4,10s6,4,9.9,4c1.4,0,2.8-0.2,4-0.6c1.3-0.4,2.3-0.8,3.1-1.3c0.8-0.5,1.5-1,2.1-1.5
		c0.6-0.5,1-0.9,1.3-1.3l0.3-0.6L537.6,76.3z"/>
	<path class="main" d="M539.8,39.8h10.3l12.3,32.5l12.4-32.5h9.9l-18.1,43.9c-3.8,9.3-9.6,14-17.3,14c-1.8,0-3.5-0.2-5.1-0.6
		c-1.6-0.4-2.8-0.8-3.4-1.2l-1-0.6l3-7.5c1.4,1,3.4,1.5,6.2,1.5c3.8,0,6.7-2.1,8.6-6.4L539.8,39.8z"/>
</g>
<g>
	<path class="main" d="M597.7,33.2c5.8-5.8,12.9-8.7,21.2-8.7c8.3,0,15.4,2.9,21.1,8.6c5.7,5.7,8.6,12.8,8.6,21.1c0,8.3-2.9,15.4-8.7,21.2
		c-5.8,5.8-12.9,8.7-21.2,8.7c-8.3,0-15.4-2.9-21.1-8.6c-5.7-5.7-8.6-12.8-8.6-21.1C589,46.1,591.9,39,597.7,33.2z M600,73.4
		c5.1,5.1,11.4,7.7,18.9,7.7c7.5,0,13.8-2.6,18.9-7.7s7.7-11.5,7.7-19.1s-2.6-13.9-7.7-19.1c-5.1-5.1-11.4-7.7-18.9-7.7
		c-7.5,0-13.8,2.6-18.9,7.7c-5.1,5.1-7.7,11.5-7.7,19.1S594.8,68.3,600,73.4z"/>
	<path class="main" d="M666.2,46c2.3,2.1,5.9,3.8,10.8,5.3c6.1,1.8,10.6,4.1,13.6,7c3,2.8,4.5,6.3,4.5,10.5c0,4.5-1.7,8.2-5,11.1
		c-3.3,2.9-7.8,4.4-13.5,4.4c-2.5,0-4.9-0.3-7.1-0.8c-2.2-0.5-4.1-1.1-5.6-1.9s-2.8-1.4-3.9-2.2c-1.1-0.7-1.9-1.3-2.4-1.8l-0.7-0.8
		l2.3-2.4l0.7,0.7c0.3,0.3,1,0.9,2.2,1.7c1.1,0.8,2.3,1.5,3.6,2.1c1.3,0.6,2.9,1.1,5,1.6c2.1,0.5,4.2,0.7,6.5,0.7
		c4.3,0,7.8-1.1,10.5-3.4s4-5.2,4-8.6c0-3.6-1.2-6.5-3.7-8.8c-2.5-2.3-6.7-4.4-12.8-6.3c-5-1.5-8.9-3.6-11.7-6.2
		c-2.8-2.6-4.2-5.6-4.2-9.1c0-4,1.6-7.4,4.9-10.2c3.2-2.7,7.5-4.1,12.8-4.1c3.4,0,6.6,0.5,9.5,1.6c2.9,1.1,4.9,2.1,6.1,3.1l1.7,1.6
		l-2.3,2.4c-0.4-0.4-1-1-1.7-1.6s-2.4-1.4-4.9-2.4c-2.5-1-5.2-1.5-8.1-1.5c-4.6,0-8.2,1.1-10.7,3.3c-2.5,2.2-3.8,4.7-3.8,7.5
		C662.8,41.4,663.9,43.9,666.2,46z"/>
</g>
<g>
	<path class="st0" d="M49.8,23.2c1.2,0,2.4,0,3.6,0.1c-3-8.6-11.2-14.8-20.8-14.8c-12.2,0-22,9.9-22,22c0,10.8,7.8,19.8,18.1,21.7
		v-29H49.8z"/>
	<path class="st0" d="M38.9,32.1v19.5c8.5-2.6,14.8-10.1,15.6-19.2c-1.4-0.2-2.9-0.3-4.4-0.3H38.9z"/>
	<g>
		<path class="st1" d="M54.7,32.5c0.9,10.2,8.8,18.4,18.9,19.8c-0.5-5.4-2.7-10-6.6-13.8C63.6,35.3,59.5,33.3,54.7,32.5z"/>
		<path class="st1" d="M98.7,30.5c0-12.2-9.9-22-22-22c-9.8,0-18,6.3-20.9,15.1c7.4,1,13.6,3.8,18.7,8.5c5.7,5.2,8.8,11.7,9.5,19.3
			C92.5,48.3,98.7,40.1,98.7,30.5z"/>
		<g>
			<path class="st2" d="M73.8,54.5c0-0.6,0-1.2-0.1-1.7c-10.7,1.5-19,10.7-19,21.8c0,0.6,0,1.3,0.1,1.9c4.8-0.8,8.9-2.8,12.3-6
				C71.5,66.3,73.8,60.9,73.8,54.5z"/>
			<path class="st2" d="M84,53.8c0,0.2,0,0.3,0,0.5c0,8.9-3.3,16.4-9.8,22.5c-4.7,4.4-10.4,7.1-16.9,8.3c3.7,6.9,11,11.5,19.4,11.5
				c12.2,0,22.1-9.9,22.1-22C98.8,65,92.6,56.8,84,53.8z"/>
			<g>
				<path class="st3" d="M50,76.9c1.5,0,3-0.1,4.4-0.3c0.1-0.6,0.1-1.2,0.1-1.9c0-10-6.6-18.4-15.7-21.1v23.3H50z"/>
				<path class="st3" d="M49.4,85.8H28.6V53c-10.3,1.9-18.1,10.9-18.1,21.7c0,12.2,9.9,22,22,22c8.1,0,15.2-4.4,19.1-11
					C50.9,85.8,50.1,85.8,49.4,85.8z"/>
			</g>
		</g>
	</g>
</g>
</svg>
