<?xml version="1.0" encoding="UTF-8" standalone="no"?>
<svg width="44px" height="68px" viewBox="0 0 44 68" version="1.1" xmlns="http://www.w3.org/2000/svg" xmlns:xlink="http://www.w3.org/1999/xlink">
    <!-- Generator: Sketch 3.6.1 (26313) - http://www.bohemiancoding.com/sketch -->
    <title>argentinagob</title>
    <desc>Created with Sketch.</desc>
    <defs></defs>
    <g id="Page-1" stroke="none" stroke-width="1" fill="none" fill-rule="evenodd">
        <g id="argentinagob">
            <g id="Layer_1">
                <g id="Group">
                    <g id="Shape">
                        <path d="M22,60.1 C12.4,60.1 5,49.6 5,37.2 L39,37.2 C39,49.7 31.7,60.1 22,60.1" fill="#FFFFFF"></path>
                        <path d="M25.8,8.7 L26.1,8.7 C26.1,8.7 25.9,7.5 23.7,7.6 L23.2,7.6 L23,8.3 L24.5,8.2 C24.4,8.2 25.5,8.1 25.8,8.7" fill="#231F20"></path>
                        <path d="M23.3,9.5 C23.3,9.4 23.6,9.1 23.6,9.1 L23.7,9.1 C23.7,9.2 23.6,9.2 23.6,9.3 C23.6,9.5 23.7,9.7 24,9.8 L24.4,9.8 C24.6,9.7 24.8,9.5 24.8,9.3 L24.8,9.1 C25,9.1 25.2,9.3 25.3,9.5 L25.8,9.5 C25.8,9.5 25.5,8.3 23.4,8.6 C23.4,8.6 22.9,9.3 22.9,9.4 C22.8,9.6 23.3,9.6 23.3,9.5" fill="#231F20"></path>
                        <path d="M18.5,9.5 L19,9.4 C19.1,9.2 19.3,9.1 19.5,9 L19.5,9.1 C19.5,9.4 19.6,9.6 19.9,9.6 L20.3,9.6 C20.5,9.5 20.7,9.3 20.7,9.1 C20.7,9.1 20.7,9.1 20.7,9 L20.8,9 L21.1,9.3 C21.1,9.4 21.6,9.4 21.6,9.3 C21.6,9.2 21.1,8.5 21.1,8.5 C18.8,8.3 18.5,9.5 18.5,9.5" fill="#231F20"></path>
                        <path d="M19.8,8.2 L21.4,8.3 C21.4,8.3 21.2,7.7 21.2,7.6 L20.8,7.6 C18.4,7.5 18.2,8.7 18.2,8.7 L18.5,8.7 C18.8,8.1 19.8,8.2 19.8,8.2" fill="#231F20"></path>
                        <path fill="#231F20" d="M24.3,24.6 L24.2,24.6 C24.3,24.6 24.3,24.7 24.3,24.6"></path>
                        <path d="M23.9,63.2 C25.5,63 30.4,60.9 32.1,59.5 C34,59.7 34.7,58.2 36,57.5 C35.9,57.4 35.8,57.3 35.6,57.3 C36.4,56.8 36.8,56.2 37.6,55.5 C37.5,55.4 37.2,55.3 36.9,55.3 C38.2,54.9 37.3,54.4 38.5,53.5 C38.5,53.4 38.4,53.4 38.3,53.4 C39.1,52.9 39.1,52.1 39.8,51.3 C39.6,51.2 39.4,51.1 39.1,51.1 C40.5,50.7 40.4,49.7 41.2,48.8 C41.1,48.8 40.9,48.8 40.6,48.7 C41.4,48.1 41.1,47.3 41.7,46.4 C41.5,46.3 41.2,46.2 40.9,46.3 C42.1,45.8 42,44.6 42.6,43.5 C42.5,43.4 42.3,43.4 42.1,43.4 C43.1,42.4 41.8,42.8 42.6,40.8 C42.4,40.7 42.1,40.7 41.8,40.9 C42.8,40.1 42.6,39.1 43.2,37.8 C42.5,37.7 41,38.7 40.6,39.6 L40.6,39.5 C40.7,39.2 40.9,38.9 41.5,38.5 C43,37.4 42.4,36.4 42.8,35 C42.1,34.9 40.8,36.1 40.5,37 C40.5,36.9 40.5,36.8 40.4,36.7 C40.6,36.3 40.7,35.8 41.5,35.4 C42.8,34.7 42.4,33.4 42.8,32 C42.6,32 42.3,32 42.1,32.2 C42.4,31.3 41.8,30.6 41.9,29.5 C41.2,29.5 40.3,30.8 40.2,31.7 C40.2,31.6 40.1,31.5 40,31.3 C40.1,31 40.2,30.5 40.8,30.1 C42.1,28.6 41,27.8 41.2,26.3 C41,26.3 40.9,26.3 40.8,26.4 C40.7,25.7 40.2,25.2 40.1,24.3 C39.4,24.4 38.7,25.7 38.8,26.6 C38.7,26.5 38.6,26.3 38.5,26.2 C38.6,25.9 38.6,25.4 39.2,24.9 C39.9,23.5 39.2,22.8 39.1,21.4 C38.9,21.4 38.7,21.5 38.4,21.7 C38.4,20.8 37.9,20.3 37.6,19.3 C37.1,19.4 36.7,20 36.5,20.7 C36.5,20.4 36.6,20.1 36.7,19.7 C36.7,17.8 36,17.7 35.4,16.2 C35.2,16.4 35,16.8 34.8,17.3 C34.6,16.1 34.1,15.7 33.4,14.6 C33,15 32.8,16.2 32.9,17 C32.8,16.7 32.7,16.4 32.8,15.9 C32.6,14.4 31.9,14 31.2,13.1 C31.5,13.1 31.9,13 32.3,12.7 C32.3,12.7 31.7,12.8 31.3,12.6 C30.9,12.4 30.7,12 30.3,11.9 C29.9,11.7 29.5,12 28.9,11.5 L32.6,10.7 L29,10 C29,10 29.2,9.8 29.6,9.7 C29.9,9.7 30.4,9.7 30.7,9.3 C30.8,9.1 31.3,8.6 32.4,8.7 C31.6,8.2 31.1,8.4 30.4,8.6 C29.9,8.9 29.6,8.7 28.8,8.7 L31.8,6.8 L28.2,7.6 C28.8,6.7 29.3,7.1 29.7,6.1 C29.8,5.9 30.2,5.4 30.8,5.1 C30.1,4.9 29.4,5.3 28.7,6.1 C28.6,6 28,6.2 27.6,6.3 L29.6,3.3 C29.6,3.3 27.5,4.8 26.5,5.3 L26.5,5.3 C26.6,4.5 27.2,4.6 27.3,3.7 C27.2,3.4 27.3,2.7 28,2 C27.2,2.2 26.8,2.8 26.5,3.7 C26.3,4 25.9,4.2 25.5,4.6 L26.2,1 L24.1,4 C24.1,4 23.9,3.9 24,3.5 C24.3,2.9 24.3,2.6 24.2,2.3 C24,1.8 23.7,1.2 24.2,0.4 C23,1.1 23.6,2.1 23.3,2.8 C23.2,3.1 22.9,3.5 22.8,3.8 L22.2,0.2 L21.5,3.8 C21.1,3.2 21.3,3 21.1,2.4 C20.8,1.7 20.2,1.9 20.2,0.4 C20,0.9 19.7,1.3 20.3,2.7 C20.4,2.9 20.2,3.5 20.3,4 L18.3,1 L19,4.6 C18.5,4.6 18.4,3.8 18.1,3.5 C17.6,3.1 16.9,3.2 16.5,2 C16.3,2.8 16.6,3.3 17.4,4 C17.7,4.4 17.8,5 18,5.4 L14.9,3.4 L17,6.4 C16.3,6.5 16.3,5.6 14.9,5.6 C14,5.6 13.5,4.8 13.6,5 C14,6.6 15.1,6.1 15.5,6.7 C15.6,6.8 16.1,7.3 16.2,7.5 L12.6,6.7 L15.7,8.7 C15.2,9 14.5,8.3 13.9,8.6 C12.7,9.2 12.2,8.6 12.1,8.6 C12.8,9.5 13.3,9.3 14,9.3 C14.5,9.3 14.9,9.6 15.5,9.8 L11.9,10.5 L15.5,11.2 C15.1,11.6 14.4,11.3 13.9,11.7 C12.8,12.9 11.7,12.3 12.1,12.5 C13,13.1 13.5,13 14.1,12.8 C13.7,13.1 13.4,13.3 13.2,13.7 C13.1,13.4 13.1,13.2 12.9,13.1 C12.2,14.1 11.4,14.2 11.1,15.5 C11,15.2 10.9,14.9 10.7,14.7 C10.1,15.8 9.4,16 9.2,17.2 C9.1,16.9 9,16.6 8.8,16.5 C8,17.9 7,18.2 7.3,20 C7.5,20.5 7.5,20.8 7.4,21 C7.3,20.3 7,19.5 6.5,19.4 C6,20.2 5.6,20.8 5.5,21.7 C5.3,21.6 5.2,21.5 5,21.5 C4.9,22.9 3.8,23.4 4.8,25 C5.4,25.5 5.3,25.9 5.3,26.3 C5.2,26.3 5.2,26.4 5.1,26.5 C5.2,25.6 4.4,24.3 3.7,24.2 C3.6,25.2 3.1,25.7 3.2,26.6 C3,26.5 2.9,26.4 2.7,26.4 C2.9,27.8 1.8,28.4 3.1,29.8 C3.7,30.2 3.8,30.6 3.9,31 C3.8,31.1 3.7,31.2 3.7,31.4 C3.6,30.5 2.7,29.3 2,29.3 C2.2,31 1.4,30.9 1.9,32 C1.6,31.8 1.4,31.8 1.2,31.8 C1.6,33.2 1.1,34.4 2.5,35.2 C3.3,35.6 3.3,36.1 3.6,36.4 C3.5,36.5 3.5,36.6 3.5,36.7 C3.2,35.8 1.9,34.7 1.2,34.7 C1.5,35.9 1.3,37 2,37.8 C1.6,37.6 1.2,37.4 0.8,37.5 C1.5,38.9 1.1,39.7 2.4,40.8 C2,40.6 1.6,40.5 1.3,40.7 C1.7,41.7 1.5,42.4 1.9,43.1 C1.7,43.1 1.5,43.2 1.4,43.2 C2.1,44.3 1.9,45.2 3,45.9 C2.7,45.9 2.5,45.9 2.3,46 C2.8,46.8 2.8,47.5 3.2,48.2 C3,48.2 2.9,48.3 2.8,48.4 C3.7,49.2 3.7,50.1 4.7,50.7 C4.4,50.7 4.2,50.8 4.1,50.9 C4.8,51.6 5,52.3 5.7,52.8 C5.4,52.8 5.2,52.9 5,53.1 C6,53.8 6.1,54.6 7.2,55 C6.9,55 6.7,55.1 6.5,55.2 C7.8,56.2 6.9,56.6 8.1,57 C7.9,57 7.8,57 7.8,57.1 C9.1,57.8 9.3,59.5 12.2,59.5 L12.2,59.5 C13.6,61 17.4,62.8 20.2,63.2 L23.9,63.2 L23.9,63.2 Z M42,41.4 C41.7,42.3 42,42.9 41.2,43.6 C40.6,43.7 40.7,43.9 40.5,44.1 C40.6,43.8 40.7,43.4 40.9,43.2 C40.7,43.3 40.5,43.5 40.3,43.8 C40.2,43.7 39.9,43.7 39.6,43.1 C39.2,42.3 39.5,42 39.4,41.2 C39.8,41.9 40.4,42.5 40.5,43 C40.8,42.3 41.7,41.3 42,41.4 L42,41.4 Z M40.5,41.9 C40.6,41.7 40.9,41.4 41.3,41.2 C40.9,41.5 40.7,41.9 40.5,42.2 L40.5,41.9 L40.5,41.9 Z M42.4,38.3 C42,39.3 42.3,39.7 41.4,40.6 C40.8,40.9 40.8,41 40.7,41.2 C40.8,40.9 41,40.5 41.2,40.2 C40.9,40.4 40.7,40.6 40.5,40.9 C40.4,40.8 40.1,40.9 39.9,40.4 C39.5,39.7 39.9,39.4 39.8,38.7 C40.2,39.2 40.8,39.7 40.8,40.2 C41,39.4 42.1,38.3 42.4,38.3 L42.4,38.3 Z M40.8,37.5 C40.9,36.8 41.8,35.6 42.2,35.5 C41.9,36.5 42.3,36.9 41.5,37.8 C40.9,38.1 41,38.3 40.9,38.5 C40.9,38.1 41.1,37.8 41.2,37.5 C41,37.7 40.8,38 40.7,38.3 C40.6,38.2 40.3,38.4 40,37.9 C39.5,37.3 39.8,36.9 39.6,36.2 C39.9,36.6 40.6,37 40.8,37.5 L40.8,37.5 Z M39.7,35.3 C40.1,35.7 40.3,35.8 40.4,36.2 C40.2,36 39.9,35.8 39.7,35.6 L39.7,35.3 L39.7,35.3 Z M42.1,32.5 C41.9,33.5 42.3,33.9 41.4,34.8 C40.8,35.1 40.9,35.2 40.7,35.4 C40.8,35 40.9,34.7 41,34.5 C40.8,34.7 40.6,34.9 40.5,35.2 C40.4,35.1 40.1,35.2 39.8,34.7 C39.3,34.1 39.6,33.7 39.4,33 C39.9,33.5 40.6,33.9 40.7,34.3 C40.9,33.6 41.8,32.5 42.1,32.5 L42.1,32.5 Z M40.6,32.2 C40.6,31.5 41.3,30.3 41.6,30.2 C41.5,31.2 42,31.5 41.4,32.5 C40.9,32.9 41,33 40.8,33.2 C40.8,32.9 40.9,32.5 41,32.2 C40.8,32.4 40.6,32.7 40.6,33 C40.4,32.9 40.2,33.1 39.8,32.7 C39.2,32.2 39.4,31.8 39.1,31.2 C39.6,31.5 40.4,31.8 40.6,32.2 L40.6,32.2 Z M38.5,45.5 C38.5,45.3 38.6,45.2 38.6,45 L38.6,45.1 C39,46.3 39.3,46.4 39.2,47.2 L39.1,47.3 C39.3,46.7 38.9,46 38.5,45.5 L38.5,45.5 Z M37.1,51.4 C37.1,51 36.9,50.6 36.7,50.2 C36.8,50.1 36.8,49.9 36.9,49.8 C37,50.7 37.2,50.9 37.1,51.4 L37.1,51.4 Z M38.3,51.2 C37.8,51.3 37.3,51.6 37.1,51.9 L37.1,51.8 C37.4,51.6 37.6,51.2 38.3,51.2 L38.3,51.2 Z M36,49.5 C36,49.5 33,50 29.2,47.5 C29.5,47.1 29.6,46.1 29.5,45.5 C29.4,45 29.4,45.4 29.3,45.7 C28.9,46.6 28.7,46.7 28.3,47 C27.2,45.9 27,45.9 25.6,45 C24.6,44.5 24.5,44.1 23.9,43.7 C22.9,44.2 21.4,45.1 20.6,44.5 C19.9,44.2 21.3,43.8 21.9,42.9 C22.4,42.2 23,42.1 23.8,42.2 C25.3,42.5 26.1,43.1 28.3,44.1 C31.1,44.3 33.1,45.1 35.9,45.7 C36.4,45.8 37.1,45.9 37.4,45.9 C37.1,47.2 36.7,48 36,49.5 L36,49.5 Z M23.9,46.5 C24.7,47.4 25.5,47.6 26,48.7 C25.8,49 25.5,49.1 25.2,48.9 C24,47.5 22.8,47.3 23.3,46.6 C23.1,46.6 22.8,46.9 22.9,47.1 C23.1,48.1 24.2,48.5 24.5,49.3 C24.4,50 23,49.4 22.4,47.6 L22.4,47.5 C22.2,48 21.9,48.2 22.8,49.2 C23,49.6 23.1,50 22.5,49.9 C22.6,50 22.2,49.9 22.4,49.9 L22.5,49.9 C22.5,49.9 22.5,49.9 22.4,49.8 C22.7,48.1 21.1,48.4 21.2,48.4 C21.4,47.8 20.5,47.2 19.6,47.6 C19.7,47.1 18.8,46.4 17.5,46.9 C17.3,46.4 16.1,46 15,47.4 C13,47.6 9.8,49.3 7.8,48.5 C7.7,48.6 6.6,45.3 6.5,45.2 C8.8,45 14,44.6 15.9,43.8 C17.3,42.9 20.1,42.4 20.7,42.7 C20.7,43.2 19.5,44.1 20.1,44.6 C21.1,45.6 22.7,45.1 23.9,44.5 C25,45.7 26.9,45.8 27.6,47.4 L27.4,47.9 C27,48.2 27,48.2 26.5,47.5 C25.4,46 24.4,46.4 24.2,45.4 C23.6,45.8 23.9,46.2 23.9,46.5 L23.9,46.5 Z M18.5,49.5 C18.1,49.7 18.7,49.3 18.8,49.2 L19,49 C19.4,48.7 19.8,48.3 20.1,48.9 C20.3,49.3 18.9,50.1 18.7,50.2 C18.5,50.3 18.4,50.3 18.3,50.1 C18.2,49.7 18.3,49.5 18.5,49.5 L18.5,49.5 Z M17.3,49.3 C17.1,49.4 16.9,49.4 16.7,49.2 C16.6,48.9 17,48.5 17.2,48.3 C17.3,48.1 17.5,48.1 17.5,48.1 L17.7,47.9 C18.2,47.8 18.2,47.9 18.3,48.1 C18.5,48.3 17.6,49.3 17.3,49.3 L17.3,49.3 Z M20.6,49.6 C20.6,49.6 21.1,49 21.4,49.8 C21.5,50.1 20.9,50.5 20.4,50.7 C20.1,50.5 19.4,50.5 20.6,49.6 L20.6,49.6 Z M16,48.4 C15.8,48.5 15.4,48.1 15.6,48 L15.8,47.6 C16.2,47.5 16.4,47.3 16.5,47.5 C16.7,47.7 16.1,48.3 16,48.4 L16,48.4 Z M7.2,49.8 C7.1,50 7.1,50.1 7,50.2 C7,50.1 7.1,49.9 7.1,49.7 L7.2,49.8 L7.2,49.8 Z M6.8,51.4 C6.6,51.2 6.4,51 6,50.9 C6.3,51 6.5,51.1 6.7,51.2 C6.8,51.3 6.8,51.3 6.8,51.4 L6.8,51.4 Z M4.8,46.9 C4.8,46.8 4.8,46.8 4.8,46.9 C4.6,46 4.9,45.9 5.3,44.8 C5.3,45 5.4,45.1 5.4,45.3 C5.1,45.8 4.8,46.4 4.8,46.9 L4.8,46.9 Z M5,30.5 C4.8,30.6 4.6,30.7 4.4,30.8 C4.5,30.7 4.7,30.5 5,30.3 C5.1,30.4 5,30.4 5,30.5 L5,30.5 Z M5.2,37.5 L21.2,37.5 L21.2,42.2 C20.5,42.1 19.2,42 18.2,42.2 C15.3,42.7 16.2,44.2 6.1,44.3 C5.1,41.2 5.2,37.5 5.2,37.5 L5.2,37.5 Z M15.1,14.2 C15.2,14 15.4,14 15.5,13.4 C15.9,12.1 16.6,12.3 17.5,11.7 C17.8,12.1 16.7,13.5 16.1,13.9 C16.5,13.8 17.1,14.4 17.7,14.6 C17,14.7 16.7,15.1 16,14.9 C15.5,14.7 15.5,14.5 15.4,14.3 C15.6,14.1 15.8,13.8 16,13.6 C15.7,13.8 15.4,14 15.1,14.2 L15.1,14.2 Z M27.3,13.8 C27,13.8 26.8,13.7 26.5,13.6 C26.9,13.5 27.3,13.3 27.6,13.1 C28.3,13.2 28.9,13.6 28.9,14.2 C28.3,14 28.2,14.4 27.3,14.6 C26.5,14.8 26.1,14.3 25.4,14.2 C25.2,14.1 25.1,13.9 25.1,13.8 C25.4,13.9 25.8,13.9 26.2,13.8 L26.2,13.9 C26.5,13.9 26.9,13.9 27.3,13.8 L27.3,13.8 Z M24.7,12.8 C25.1,12.8 25.4,12.7 25.8,12.6 L25,12.6 C25.5,12.3 25.8,11.9 26.5,11.9 C27.4,11.9 27.4,12.4 27.9,12.2 C28,12.6 25.4,13.8 24.7,12.8 L24.7,12.8 Z M23.5,12.6 C23.9,12.7 24.3,13.5 24.8,14 C24.1,13.8 23.8,14 23.2,13.5 C22.8,13.1 22.8,12.9 22.8,12.7 C23.1,12.6 23.3,12.4 23.5,12.2 C23.2,12.4 22.9,12.5 22.6,12.5 C22.8,12.4 22.9,12.4 23.2,11.9 C24,11.1 24.4,11.6 25.4,11.3 C25.2,11.7 24.1,12.5 23.5,12.6 L23.5,12.6 Z M21.4,12.8 C21.8,12.8 22.3,13.5 22.9,13.8 C22.2,13.8 21.9,14 21.3,13.7 C20.8,13.4 20.8,13.2 20.7,13 C21,12.8 21.1,12.6 21.3,12.4 C21.1,12.6 20.7,12.8 20.4,12.9 C20.6,12.7 20.7,12.8 20.9,12.2 C21.6,11.3 21.9,11.6 22.9,11.2 C22.9,11.5 22,12.6 21.4,12.8 L21.4,12.8 Z M19.9,14.1 C19.2,14.1 18.9,14.4 18.2,14.1 C17.7,13.9 17.7,13.6 17.6,13.5 C17.8,13.3 18,13.1 18.2,12.8 C18,13 17.7,13.2 17.3,13.4 C17.5,13.2 17.6,13.2 17.8,12.6 C18.5,11.6 19,11.9 19.9,11.4 C19.9,11.7 19,12.8 18.3,13.2 C18.8,13.2 19.4,13.7 19.9,14.1 L19.9,14.1 Z M31.5,17.4 L31.8,17.4 C31.7,17.4 31.6,17.5 31.5,17.4 C31.5,17.5 31.5,17.4 31.5,17.4 L31.5,17.4 Z M37.4,25.5 C37.6,25.6 37.7,25.7 37.8,25.8 C37.7,25.8 37.5,25.7 37.4,25.7 L37.4,25.5 L37.4,25.5 Z M29,43.4 C27.4,43.1 25.4,41.3 23,41.4 L23,37.4 L38.9,37.4 C38.9,37.9 38.6,42.2 37.8,45.1 C34.5,45.1 31.6,43.3 29,43.4 L29,43.4 Z M39,30.3 C39.3,30.5 39.5,30.7 39.7,30.8 L39.1,30.5 C39,30.4 39,30.4 39,30.3 L39,30.3 Z M40.8,27.3 C40.7,28.3 41.2,28.6 40.6,29.6 C40.1,29.9 40.2,30.1 40.1,30.3 C40.1,30 40.1,29.6 40.3,29.3 C40.1,29.5 40,29.8 39.9,30 C39.8,30 39.5,30.1 39.1,29.7 C38.5,29.2 38.7,28.8 38.4,28.1 C39,28.6 39.8,28.9 40,29.3 C39.8,28.5 40.5,27.3 40.8,27.3 L40.8,27.3 Z M39.3,27.2 C39.2,26.5 39.6,25.3 39.9,25.1 C40,26.1 40.6,26.4 40.1,27.4 C39.7,27.8 39.8,27.9 39.7,28.1 C39.6,27.8 39.6,27.4 39.7,27.1 C39.5,27.4 39.4,27.6 39.4,27.9 C39.2,27.9 39,28 38.5,27.7 C37.8,27.3 37.9,26.8 37.5,26.2 C38.1,26.6 39,26.8 39.3,27.2 L39.3,27.2 Z M38.5,22.3 C38.6,23.3 39.2,23.6 38.7,24.6 C38.2,25 38.4,25.1 38.3,25.3 C38.2,25 38.2,24.6 38.3,24.3 C38.2,24.5 38,24.8 38,25.1 C37.8,25.1 37.6,25.2 37.1,24.8 C36.4,24.3 36.5,23.9 36.1,23.3 C36.7,23.7 37.6,23.9 37.9,24.3 C37.8,23.6 38.2,22.4 38.5,22.3 L38.5,22.3 Z M37.2,20.2 C37.5,21.2 38.1,21.4 37.8,22.4 C37.4,22.8 37.6,23 37.5,23.2 C37.4,22.9 37.3,22.5 37.3,22.2 C37.2,22.5 37.1,22.7 37.2,23 C37,23 36.8,23.2 36.3,22.9 C35.5,22.5 35.5,22.1 35,21.5 C35.7,21.8 36.6,22 37,22.3 C36.7,21.6 36.9,20.4 37.2,20.2 L37.2,20.2 Z M36.5,21.7 C36.4,21.5 36.2,21.4 36,21.3 C36.1,21.4 36.3,21.5 36.5,21.7 L36.5,21.7 L36.5,21.7 Z M35.3,17.5 C35.7,18.5 36.1,18.4 36,19.6 C35.8,20.2 35.9,20.3 35.9,20.6 C35.7,20.3 35.6,19.9 35.5,19.6 C35.5,19.9 35.5,20.2 35.6,20.6 C35.4,20.6 35.3,20.9 34.8,20.7 C34.1,20.5 34,20 33.5,19.6 C34.2,19.7 35,19.6 35.3,19.9 C35,19.1 35.1,17.7 35.3,17.5 L35.3,17.5 Z M33.7,18 C33.4,17.4 33.3,16.1 33.5,15.8 C34,16.7 34.4,16.5 34.5,17.7 C34.3,18.3 34.5,18.4 34.5,18.7 C34.3,18.4 34.1,18.1 34,17.7 C34,18 34,18.3 34.2,18.6 C34,18.7 34,18.9 33.4,18.8 C32.6,18.7 32.5,18.3 31.9,17.9 C32.6,18 33.3,17.7 33.7,18 L33.7,18 Z M31.1,13.7 C31.7,14.6 32.3,14.5 32.4,15.7 C32.3,16.3 32.4,16.4 32.5,16.6 C32.3,16.3 32.1,16 32,15.7 C32,16 32.1,16.3 32.2,16.6 C32,16.6 32,16.9 31.4,16.9 C30.6,16.9 30.5,16.4 29.9,16.1 C30.6,16.1 31.4,15.8 31.8,16 C31.2,15.4 30.9,14 31.1,13.7 L31.1,13.7 Z M30.7,13 C30.7,13.1 30.6,13.2 30.6,13.4 C30.5,13.2 30.4,13.1 30.2,13 L30.7,13 L30.7,13 Z M30.5,13.9 C30.4,14.6 30.6,14.6 30.7,14.9 L30.5,14.9 C30.3,14.6 30,14.3 29.9,14.2 C30,14.7 30,14.9 30.2,15.2 C30.1,15.3 30,15.4 29.7,15.4 C28.8,15.5 28.6,15.3 28.2,15.1 C28.8,14.8 29.1,14.5 29.7,14.7 C29.7,14.7 29.7,14.6 29.6,14.5 L29.6,14.5 L29.6,14.5 C29.5,14.3 29.3,14.1 29.1,13.8 C28.8,13.3 28.6,12.8 28.7,12.6 C29.5,13.1 30.2,12.8 30.5,13.9 L30.5,13.9 Z M29.9,12.2 L29.1,12.2 C29,12.1 28.9,12 28.8,12 C29.2,12 29.7,12.2 29.9,12.2 L29.9,12.2 Z M16.1,11.6 C16.8,11.3 17,11 17,11 L14.8,10.4 L17.1,9.9 C17.1,9.9 17,9.8 15.7,9.4 C15.4,9.3 15.7,9.1 14.6,8.8 C15,8.7 14.9,8.9 15.6,9 C16.1,9 16.5,9.1 17.3,8.9 C17.3,8.9 16,7.9 15.1,7.4 C15.1,7.4 16.6,7.8 17.7,8.1 C17.7,8 16.8,7.3 16.2,6.5 C16.1,6.3 16,6.2 15.9,6.1 C16.5,6.3 16.5,6.5 16.9,6.7 C17.3,6.8 18,7.3 18.3,7.2 C17.6,6.3 16.7,4.9 16.7,4.9 L19,6.5 C18.9,5.9 18.5,5.4 18.4,5.2 C18.1,4.2 18.2,4.3 18,3.9 C18.6,4.8 18.9,5.4 19.8,5.9 L19.4,3 L20.8,5.5 C20.9,5.1 20.8,4.4 20.7,4.2 C20.8,2.9 20.8,3.7 20.7,2.7 C20.9,3.2 20.9,3.1 20.9,3.8 C21.2,4.4 21.3,4.8 21.7,5.3 L22.3,2.6 L22.7,5.3 C23,4.7 23,4.4 23.2,4 C23.5,3.6 23.7,3 23.7,3 C23.5,4.1 23.5,3.7 23.4,4.3 C23.4,4.9 23.4,5.7 23.5,5.8 L25.2,3.4 L24.5,6.2 C24.7,6.1 25.4,5.3 26,4.8 C26.2,4.6 26.5,4.2 26.5,4.2 C26.1,4.7 26,5 25.8,5.4 C25.5,6.1 25.6,5.8 25.3,6.8 L27.7,5.2 L26.1,7.5 C26.1,7.5 26.2,7.6 27.3,7 C27.9,6.8 28.4,6.6 28.8,6.4 C28,7.1 27.7,7 26.6,8.4 L29.3,7.9 C29.3,7.9 27.1,9.2 27,9.3 C27.1,9.4 28.1,9.2 28.7,9.3 C29.3,9.3 29.3,9.3 29.9,9.2 C29.2,9.4 29,9.3 28.2,9.6 C27.9,9.8 27.2,10 27.1,10.2 L29.8,10.7 C29.8,10.7 27.2,11.3 26.7,11.5 L26.2,11.5 L25.9,11.5 C26,11.3 26.1,11.1 26,10.9 C25.1,11.1 24.3,10.9 23.6,11.1 C23.7,10.9 23.7,10.7 23.6,10.6 C22.5,11.1 21.6,10.9 20.6,11.6 C20.6,11.4 20.6,11.1 20.5,10.9 C19.5,11.4 18.7,11.1 18,11.7 L18,11.2 C17,11.6 16.2,11.7 15.5,12.5 C15.3,12.5 15.1,12.4 14.9,12.4 C14.9,12.4 14.9,12.3 14.8,12.3 L14.7,12.4 L14.2,12.4 C15.2,11.9 15.7,11.8 16.1,11.6 L16.1,11.6 Z M13,14.8 C13.3,13.7 13.9,13.9 14.6,13.2 C14.8,13.5 14.2,14.8 13.7,15.2 C14.1,15.1 14.8,15.5 15.5,15.6 C14.8,15.8 14.7,16.2 13.9,16.1 C13.3,16 13.3,15.8 13.1,15.7 C13.3,15.5 13.4,15.2 13.4,14.9 C13.3,15.2 13,15.4 12.8,15.6 C12.9,15.4 13,15.4 13,14.8 L13,14.8 Z M14.4,14.9 L14.4,14.9 C14.3,14.9 14.3,14.9 14.4,14.9 L14.4,14.9 L14.4,14.9 Z M11.3,16.2 C11.4,15 12,15.1 12.6,14.3 C12.8,14.6 12.5,16 12.1,16.5 C12.5,16.3 13.2,16.6 13.9,16.6 C13.3,16.9 13.2,17.3 12.4,17.3 C11.8,17.3 11.7,17.1 11.6,17 C11.7,16.7 11.8,16.4 11.8,16.1 C11.7,16.4 11.5,16.7 11.3,17 C11.3,16.8 11.5,16.8 11.3,16.2 L11.3,16.2 Z M10.8,17.1 C10.8,17.3 10.7,17.4 10.7,17.5 L10.7,17.5 C10.7,17.5 10.8,17.3 10.8,17.1 L10.8,17.1 Z M9.3,17.7 C9.4,16.5 9.7,16.6 10.3,15.7 C10.5,16 10.4,17.3 10.1,17.9 C10.5,17.7 11.2,17.9 11.9,17.9 C11.3,18.3 11.2,18.7 10.5,18.8 C9.9,18.9 9.8,18.6 9.7,18.6 C9.8,18.3 9.8,18 9.8,17.7 C9.7,18 9.6,18.3 9.3,18.6 C9.4,18.4 9.5,18.4 9.3,17.7 L9.3,17.7 Z M8.5,17.6 C8.7,17.9 8.7,19.3 8.4,19.9 C8.7,19.6 9.5,19.7 10.2,19.6 C9.6,20 9.6,20.5 8.9,20.7 C8.4,20.8 8.3,20.6 8.1,20.6 C8.2,20.3 8.2,20 8.2,19.7 C8.1,20 8,20.4 7.8,20.7 C7.8,20.4 8,20.4 7.7,19.8 C7.7,18.6 8.1,18.6 8.5,17.6 L8.5,17.6 Z M7.4,21.8 C7.5,21.7 7.6,21.6 7.7,21.6 C7.6,21.6 7.4,21.8 7.4,21.8 C7.4,21.9 7.4,21.8 7.4,21.8 L7.4,21.8 Z M6.6,20.4 C6.9,20.5 7.1,21.8 6.8,22.5 C7.2,22.1 8,22 8.8,21.7 C8.3,22.3 8.3,22.7 7.5,23 C6.9,23.3 6.7,23.1 6.6,23.2 C6.6,22.9 6.6,22.7 6.5,22.4 C6.5,22.7 6.4,23 6.3,23.3 C6.3,23.1 6.4,23 6,22.6 C5.7,21.6 6.4,21.3 6.6,20.4 L6.6,20.4 Z M5.1,24.7 C4.6,23.7 5.2,23.4 5.3,22.5 C5.6,22.6 6,23.8 5.9,24.5 C6.2,24.2 7,23.9 7.6,23.5 C7.2,24.1 7.3,24.5 6.6,25 C6.1,25.4 5.9,25.2 5.7,25.3 C5.7,25 5.6,24.8 5.4,24.5 C5.5,24.8 5.4,25.1 5.4,25.4 C5.5,25.1 5.6,25 5.1,24.7 L5.1,24.7 Z M6.6,25.5 C6.6,25.6 6.5,25.7 6.5,25.7 C6.2,25.9 6,26 5.7,26.1 C5.9,25.9 6.2,25.8 6.6,25.5 L6.6,25.5 Z M4.2,25.2 C4.5,25.3 4.9,26.6 4.8,27.2 C5.1,26.8 5.9,26.6 6.5,26.3 C6.1,26.9 6.2,27.3 5.5,27.7 C5,28.1 4.8,27.9 4.6,28 C4.6,27.7 4.5,27.4 4.4,27.2 C4.5,27.5 4.4,27.8 4.4,28.2 C4.4,28 4.4,27.9 4,27.5 C3.5,26.4 4.1,26.1 4.2,25.2 L4.2,25.2 Z M3.4,29.5 C2.8,28.6 3.3,28.2 3.2,27.3 C3.6,27.4 4.2,28.6 4.2,29.2 C4.4,28.8 5.2,28.5 5.7,28 C5.4,28.7 5.6,29 5,29.6 C4.6,30 4.4,29.9 4.2,30 C4.1,29.7 4,29.5 3.8,29.3 C3.9,29.6 4,29.9 4,30.3 C3.9,30 4,29.8 3.4,29.5 L3.4,29.5 Z M2.4,30.2 C2.8,30.3 3.4,31.5 3.4,32.2 C3.6,31.8 4.4,31.5 4.9,31.1 C4.6,31.8 4.8,32.1 4.2,32.6 C3.8,33 3.6,32.9 3.4,32.9 C3.3,32.6 3.2,32.4 3,32.2 C3.1,32.5 3.2,32.8 3.2,33.2 C3.1,33 3.2,32.9 2.7,32.5 C2,31.5 2.5,31.1 2.4,30.2 L2.4,30.2 Z M3.5,35 C3.4,34.7 3.2,34.5 3,34.3 C3.2,34.6 3.3,34.9 3.3,35.3 C3.1,35.1 3.2,35 2.7,34.7 C1.9,33.8 2.2,33.6 2,32.7 C2.3,32.7 3.2,33.8 3.4,34.4 C3.5,34 4.2,33.6 4.7,33.1 C4.5,33.8 4.8,34.1 4.3,34.7 C3.9,35 3.6,34.9 3.5,35 L3.5,35 Z M4.4,35.2 L4.4,35.5 C4.1,35.7 3.9,35.9 3.7,36.1 C3.8,35.7 4,35.6 4.4,35.2 L4.4,35.2 Z M1.9,35.5 C2.2,35.6 3.2,36.6 3.3,37.3 C3.4,36.9 4.1,36.5 4.5,36 C4.3,36.7 4.6,37.1 4.1,37.6 C3.8,38 3.5,37.9 3.4,38 C3.3,37.7 3.1,37.5 2.9,37.3 C3.1,37.6 3.2,37.9 3.2,38.3 C3.1,38.1 3.1,38 2.6,37.6 C1.8,36.8 2.2,36.5 1.9,35.5 L1.9,35.5 Z M3.3,39.1 L3.3,39.2 C3.1,38.9 2.8,38.5 2.4,38.1 C3,38.4 3.2,38.8 3.3,39.1 L3.3,39.1 Z M1.8,38.4 C2.1,38.4 3.1,39.3 3.4,39.9 C3.4,39.5 4,39 4.4,38.4 C4.4,39.1 4.7,39.5 4.3,40.1 C4.1,40.6 3.8,40.5 3.7,40.6 C3.5,40.4 3.2,40.2 3,40 C3.2,40.3 3.4,40.6 3.5,40.9 C3.3,40.7 3.4,40.6 2.8,40.3 C1.4,39.1 2.8,40.7 1.8,38.4 L1.8,38.4 Z M3.6,41.7 L3.6,41.9 C3.4,41.5 3.1,41.2 2.7,40.9 C3.1,41.2 3.4,41.5 3.6,41.7 L3.6,41.7 Z M3.5,42.7 C3.6,42.2 4.2,41.6 4.6,40.9 C4.5,41.6 4.8,42 4.4,42.7 C4.1,43.3 3.9,43.3 3.8,43.4 C3.7,43.1 3.5,43 3.2,42.8 C3.4,43 3.5,43.3 3.6,43.7 C3.4,43.5 3.5,43.4 2.9,43.2 C2.1,42.6 2.4,42.3 2.1,41.3 C2.4,41.3 3.3,42.1 3.5,42.7 L3.5,42.7 Z M2.3,43.6 C2.6,43.5 3.7,44.2 4,44.8 C4,44.4 4.5,43.7 4.8,42.9 C4.8,43.6 5.2,43.9 4.9,44.7 C4.7,45.3 4.5,45.3 4.4,45.5 C4.2,45.3 4,45.1 3.7,45 C3.9,45.2 4.1,45.5 4.3,45.8 C4,45.7 4,45.5 3.4,45.5 C2.5,45 2.8,44.4 2.3,43.6 L2.3,43.6 Z M5,47.6 C5,47.2 5.5,46.5 5.7,45.8 C5.7,46.5 6.1,46.8 5.8,47.6 C5.6,48.2 5.4,48.2 5.3,48.3 C5.1,48.1 4.9,48 4.6,47.9 C4.8,48 5,48.3 5.2,48.6 C5,48.5 5,48.3 4.4,48.3 C3.4,47.8 3.7,47.2 3.2,46.4 C3.5,46.3 4.6,47 5,47.6 L5,47.6 Z M3.8,48.6 C4.1,48.4 5.4,49 5.8,49.5 C5.7,49.1 6.1,48.3 6.3,47.6 C6.5,48.3 6.8,48.5 6.7,49.3 C6.6,49.9 6.4,50 6.3,50.1 C6.1,49.9 5.8,49.8 5.5,49.8 C5.8,49.9 6,50.2 6.2,50.4 C6,50.3 6,50.1 5.4,50.2 C4.3,49.9 4.5,49.3 3.8,48.6 L3.8,48.6 Z M5,51.1 C5.3,51 6.6,51.5 7,52.1 C6.9,51.7 7.3,51 7.5,50.3 C7.6,51 8,51.2 7.9,52 C7.8,52.6 7.6,52.6 7.5,52.8 C7.3,52.6 7,52.5 6.7,52.4 C7,52.4 7.2,52.7 7.4,53 C7.2,52.9 7.2,52.7 6.6,52.8 C5.5,52.4 5.7,51.8 5,51.1 L5,51.1 Z M6,53.1 C6.3,52.9 7.7,53.3 8.2,53.7 C8,53.4 8.3,52.7 8.4,52 C8.7,52.7 9.1,52.8 9.1,53.5 C9.1,54.1 8.8,54.1 8.8,54.3 C8.5,54.2 8.3,54.1 8,54.1 C8.3,54.2 8.6,54.4 8.8,54.6 C8.6,54.5 8.5,54.4 7.9,54.5 C6.7,54.3 6.8,53.8 6,53.1 L6,53.1 Z M9.1,55.2 C9.1,55.3 9.2,55.4 9.2,55.5 C8.9,55.3 8.5,55.1 8.1,55 C8.5,55 8.8,55.1 9.1,55.2 L9.1,55.2 Z M7.3,55.3 C7.6,55.1 9,55.6 9.5,56.1 C9.3,55.7 9.7,55 9.8,54.3 C10.1,55 10.5,55.1 10.4,55.9 C10.4,56.5 10.1,56.5 10.1,56.7 C9.8,56.5 9.5,56.5 9.2,56.4 C9.5,56.5 9.8,56.8 10,57 C9.8,56.9 9.7,56.8 9.1,56.8 C8,56.5 8.1,56 7.3,55.3 L7.3,55.3 Z M12.4,58.9 C12.2,58.7 11.9,58.5 11.5,58.6 C10.3,58.5 10,57.7 9,57.2 C9.3,57 10.8,57.3 11.4,57.7 C11.2,57.4 11.4,56.7 11.3,56 C11.7,56.6 12.2,56.7 12.2,57.4 C12.3,58 12.3,58.3 12.4,58.7 C12.2,58.5 12,58.4 11.7,58.3 C12,58.4 12.2,58.6 12.4,58.9 L12.4,58.9 Z M18.8,62.1 C16.1,61.3 13.8,60 13.2,59.1 C13,58.6 12.9,58 12.8,57.3 C12.8,57.3 12.8,57.3 12.8,57.2 C14.7,58.8 16.8,60 19,60.5 L18.8,60.5 C18,61.4 18.4,61.9 18.8,62.1 L18.8,62.1 Z M21.9,59.9 C14.6,59.7 10.2,53.8 8.6,50.9 C8.3,50.6 12.8,49.2 13.8,48.9 L15,48.6 C15,49.1 16,49.3 15.9,49.1 C16.1,49.2 15.8,49.6 16.4,50 C17,50.4 17.4,50.2 17.4,50.1 C17,50.5 18.3,51.2 19.1,50.7 C19,51.1 19.6,51.2 19.8,51.2 C20.1,51.4 20.7,51.5 21.2,51.2 L21.2,55.2 C21.3,56 21.3,56.1 21.7,56.3 C23.3,56.4 23,55.9 23.2,55.4 C23,53.6 23,51.1 23,51.1 C24.1,51 23.8,50.7 24.3,50.6 C24.8,50.7 25,50.7 25.4,50.1 C26,50.2 26.5,50 26.7,49.5 C27.2,49.7 27.9,49.2 28.3,48.3 C29.4,48.6 33.3,50.7 35.2,51.3 C34.3,52.7 29.7,59.9 21.9,59.9 L21.9,59.9 Z M34.7,55.7 C34.9,55.6 35.1,55.5 35.3,55.5 C35,55.6 34.8,55.7 34.6,55.9 C34.6,55.8 34.7,55.7 34.7,55.7 L34.7,55.7 Z M31,57.6 C30.9,58.3 30.8,58.8 30.7,59.3 C30,60.6 26.6,61.7 25.2,62.1 C25.6,61.7 25.9,60.9 25.3,60.5 L25.2,60.5 C27.2,60 29.2,58.9 31,57.6 C31,57.5 31,57.5 31,57.6 L31,57.6 Z M32.7,58.8 C32.2,58.7 31.8,59 31.5,59.2 C31.7,58.9 31.9,58.6 32.2,58.4 C31.9,58.5 31.7,58.6 31.5,58.7 C31.5,58.4 31.5,58.1 31.6,57.7 C31.7,57 32.2,56.9 32.6,56.3 C32.5,57 32.8,57.7 32.5,58.1 C33.1,57.7 34.7,57.4 35,57.6 C33.9,58.1 33.9,58.7 32.7,58.8 L32.7,58.8 Z M34.6,57.2 C34,57.1 33.9,57.3 33.7,57.4 C34,57.2 34.3,57 34.6,56.8 C34.3,56.9 34,56.9 33.7,57.1 C33.6,56.9 33.4,56.9 33.4,56.3 C33.4,55.5 33.8,55.4 34.1,54.7 C34.2,55.4 34.5,56.1 34.3,56.5 C34.8,56 36.3,55.5 36.6,55.7 C35.7,56.4 35.8,56.9 34.6,57.2 L34.6,57.2 Z M36,55 C35.4,54.9 35.3,55 35.1,55.1 C35.4,54.9 35.6,54.6 36,54.5 C35.7,54.5 35.4,54.6 35.1,54.7 C35,54.5 34.8,54.5 34.8,53.9 C34.8,53.1 35.2,53 35.5,52.3 C35.6,53 35.9,53.7 35.7,54.2 C36.2,53.7 37.6,53.3 37.9,53.5 C37.1,54.2 37.2,54.8 36,55 L36,55 Z M37.3,53.2 C36.7,53.2 36.7,53.3 36.4,53.4 C36.6,53.1 36.8,52.9 37.1,52.7 C36.8,52.8 36.5,52.9 36.3,53.1 C36.2,52.9 35.9,52.9 35.8,52.3 C35.6,51.5 36,51.3 36.2,50.6 C36.4,51.3 36.8,52 36.7,52.5 C37.1,51.9 38.4,51.3 38.7,51.5 C38.2,52.3 38.4,52.9 37.3,53.2 L37.3,53.2 Z M38.7,50.6 C38.1,50.5 38.1,50.7 37.9,50.8 C38.1,50.5 38.3,50.3 38.6,50.1 C38.3,50.2 38,50.3 37.8,50.4 C37.7,50.2 37.5,50.2 37.4,49.6 C37.3,48.8 37.7,48.6 37.8,47.9 C38,48.6 38.4,49.4 38.3,49.8 C38.7,49.3 40,48.7 40.3,48.9 C39.6,49.7 39.7,50.3 38.7,50.6 L38.7,50.6 Z M39.6,48.6 C39,48.6 39,48.8 38.8,48.9 C39,48.6 39.1,48.3 39.4,48.1 C39.1,48.2 38.9,48.3 38.7,48.6 C38.6,48.5 38.3,48.4 38.2,47.8 C37.9,47 38.3,46.7 38.3,46 C38.6,46.7 39.1,47.4 39.1,47.9 C39.4,47.3 40.6,46.6 40.9,46.7 C40.4,47.6 40.6,48.2 39.6,48.6 L39.6,48.6 Z M39.9,46.7 C40,46.6 40.2,46.5 40.4,46.5 C40.2,46.5 40,46.5 39.9,46.7 L39.9,46.7 Z M40.6,45.8 C40,45.8 40,46 39.8,46.1 C40,45.8 40.1,45.5 40.4,45.3 C40.1,45.4 39.9,45.5 39.7,45.7 C39.6,45.6 39.4,45.6 39.1,45 C38.8,44.2 39.2,43.9 39.2,43.2 C39.5,43.9 40,44.6 40,45.1 C40.3,44.5 41.4,43.7 41.7,43.8 C41.3,44.7 41.6,45.3 40.6,45.8 L40.6,45.8 Z" fill="#231F20"></path>
                        <path d="M16.1,11.6 C16.8,11.3 17,11 17,11 L14.8,10.4 L17.1,9.9 C17.1,9.9 17,9.8 15.7,9.4 C15.4,9.3 15.7,9.1 14.6,8.8 C15,8.7 14.9,8.9 15.6,9 C16.1,9 16.5,9.1 17.3,8.9 C17.3,8.9 16,7.9 15.1,7.4 C15.1,7.4 16.6,7.8 17.7,8.1 C17.7,8 16.8,7.3 16.2,6.5 C16.1,6.3 16,6.2 15.9,6.1 C16.5,6.3 16.5,6.5 16.9,6.7 C17.3,6.8 18,7.3 18.3,7.2 C17.6,6.3 16.7,4.9 16.7,4.9 L19,6.5 C18.9,5.9 18.5,5.4 18.4,5.2 C18.1,4.2 18.2,4.3 18,3.9 C18.6,4.8 18.9,5.4 19.8,5.9 L19.4,3 L20.8,5.5 C20.9,5.1 20.8,4.4 20.7,4.2 C20.8,2.9 20.8,3.7 20.7,2.7 C20.9,3.2 20.9,3.2 20.9,3.8 C21.2,4.4 21.3,4.8 21.7,5.3 L22.3,2.6 L22.7,5.3 C23,4.7 23,4.4 23.2,4 C23.5,3.6 23.7,3 23.7,3 C23.5,4.1 23.5,3.7 23.4,4.3 C23.4,4.9 23.4,5.7 23.5,5.8 L25.2,3.4 L24.5,6.2 C24.7,6.1 25.4,5.3 26,4.8 C26.2,4.6 26.5,4.2 26.5,4.2 C26.1,4.7 26,5 25.8,5.4 C25.5,6.1 25.6,5.8 25.3,6.8 L27.7,5.2 L26.1,7.5 C26.1,7.5 26.2,7.6 27.3,7 C27.9,6.8 28.4,6.6 28.8,6.4 C28,7.1 27.7,7 26.6,8.4 L29.3,7.9 C29.3,7.9 27.1,9.2 27,9.3 C27.1,9.4 28.1,9.2 28.7,9.3 C29.3,9.3 29.3,9.3 29.9,9.2 C29.2,9.4 29,9.3 28.3,9.6 C28,9.8 27.3,10 27.2,10.2 L29.9,10.7 C29.9,10.7 27.3,11.3 26.8,11.5 L26.3,11.5 L26,11.5 C26.1,11.3 26.2,11.1 26.1,10.9 C25.2,11.1 24.4,10.9 23.7,11.1 C23.8,10.9 23.8,10.7 23.7,10.6 C22.6,11.1 21.7,10.9 20.7,11.6 C20.7,11.4 20.7,11.1 20.6,10.9 C19.6,11.4 18.8,11.1 18.1,11.7 L18.1,11.2 C17.1,11.6 16.3,11.7 15.6,12.5 C15.4,12.5 15.2,12.4 15,12.4 L14.9,12.3 L14.8,12.4 L14.3,12.4 C15.2,11.9 15.7,11.8 16.1,11.6" fill="#FACC63"></path>
                        <path d="M25.8,8.7 L26.1,8.7 C26.1,8.7 25.9,7.5 23.7,7.6 L23.2,7.6 L23,8.3 L24.5,8.2 C24.4,8.2 25.5,8.1 25.8,8.7" fill="#231F20"></path>
                        <path d="M23.3,9.5 C23.3,9.4 23.6,9.1 23.6,9.1 L23.7,9.1 L23.7,9.3 C23.7,9.5 23.8,9.7 24.1,9.8 L24.5,9.8 C24.7,9.7 24.9,9.5 24.9,9.3 L24.9,9.1 C25.1,9.1 25.3,9.3 25.5,9.5 L26,9.5 C26,9.5 25.7,8.3 23.6,8.6 C23.6,8.6 23.1,9.3 23.1,9.4 C22.8,9.6 23.3,9.6 23.3,9.5" fill="#231F20"></path>
                        <path d="M18.5,9.5 L19,9.4 C19.1,9.2 19.4,9.1 19.5,9 L19.5,9.1 C19.5,9.4 19.6,9.6 19.9,9.6 L20.3,9.6 C20.5,9.5 20.7,9.3 20.7,9.1 C20.7,9.1 20.7,9.1 20.7,9 L20.8,9 L21.1,9.3 C21.1,9.4 21.6,9.4 21.6,9.3 C21.6,9.2 21.1,8.5 21.1,8.5 C18.8,8.3 18.5,9.5 18.5,9.5" fill="#231F20"></path>
                        <path d="M19.8,8.2 L21.4,8.3 C21.4,8.3 21.2,7.7 21.2,7.6 L20.8,7.6 C18.4,7.5 18.2,8.6 18.2,8.6 L18.5,8.6 C18.8,8 19.8,8.2 19.8,8.2" fill="#231F20"></path>
                        <path d="M42,41.4 C41.7,42.3 42,42.9 41.2,43.6 C40.7,43.7 40.7,43.9 40.5,44.1 C40.6,43.8 40.7,43.4 40.9,43.2 C40.7,43.4 40.5,43.5 40.3,43.8 C40.2,43.7 40,43.7 39.6,43.1 C39.2,42.3 39.5,42 39.3,41.2 C39.7,41.9 40.3,42.5 40.4,43 C40.8,42.3 41.7,41.3 42,41.4" fill="#0B9E5C"></path>
                        <path d="M42.4,38.3 C42,39.3 42.3,39.7 41.4,40.6 C40.8,40.9 40.8,41 40.7,41.2 C40.8,40.8 41,40.5 41.2,40.2 C40.9,40.4 40.7,40.6 40.5,40.9 C40.4,40.8 40.1,40.9 39.9,40.4 C39.5,39.7 39.9,39.4 39.8,38.6 C40.2,39.2 40.8,39.7 40.8,40.1 C41,39.4 42.1,38.3 42.4,38.3" fill="#0B9E5C"></path>
                        <path d="M40.8,37.5 C41,36.8 41.8,35.6 42.2,35.5 C41.9,36.5 42.3,36.9 41.5,37.8 C40.9,38.1 41,38.3 40.8,38.5 C40.9,38.1 41,37.8 41.2,37.5 C41,37.7 40.8,38 40.6,38.2 C40.5,38.1 40.2,38.3 39.9,37.8 C39.4,37.2 39.7,36.8 39.5,36.1 C40,36.6 40.6,37 40.8,37.5" fill="#0B9E5C"></path>
                        <path d="M42.1,32.5 C41.8,33.5 42.2,33.9 41.4,34.8 C40.8,35.1 40.9,35.2 40.7,35.4 C40.8,35.1 40.9,34.7 41,34.5 C40.8,34.7 40.6,34.9 40.4,35.2 C40.3,35.1 40,35.2 39.6,34.7 C39.1,34.1 39.4,33.8 39.2,33 C39.7,33.5 40.4,33.9 40.5,34.3 C40.9,33.7 41.8,32.5 42.1,32.5" fill="#0B9E5C"></path>
                        <path d="M40.6,32.2 C40.6,31.5 41.3,30.3 41.6,30.2 C41.5,31.2 42,31.5 41.4,32.5 C40.9,32.9 41,33 40.9,33.2 C40.9,32.9 40.9,32.5 41.1,32.2 C40.9,32.4 40.7,32.7 40.7,33 C40.5,33 40.3,33.1 39.9,32.7 C39.3,32.2 39.5,31.8 39.2,31.2 C39.6,31.5 40.4,31.8 40.6,32.2" fill="#0B9E5C"></path>
                        <path d="M15.1,14.2 C15.2,14 15.4,14 15.5,13.4 C15.9,12.1 16.6,12.3 17.5,11.7 C17.8,12.1 16.7,13.5 16.1,13.9 C16.5,13.8 17.1,14.4 17.7,14.6 C17,14.7 16.7,15.1 16,14.8 C15.5,14.6 15.5,14.4 15.4,14.3 C15.6,14.1 15.8,13.8 16,13.5 C15.7,13.9 15.4,14.1 15.1,14.2" fill="#0B9E5C"></path>
                        <path d="M27.3,13.8 C27,13.8 26.8,13.7 26.5,13.6 C26.9,13.5 27.3,13.3 27.6,13.1 C28.3,13.2 28.9,13.6 28.9,14.2 C28.3,14 28.2,14.4 27.3,14.5 C26.5,14.7 26.1,14.2 25.4,14.1 C25.2,13.9 25.1,13.8 25.1,13.6 C25.5,13.7 25.8,13.7 26.2,13.6 L26.2,13.7 C26.6,13.9 26.9,13.9 27.3,13.8" fill="#0B9E5C"></path>
                        <path d="M24.7,12.8 C25.1,12.8 25.4,12.7 25.7,12.6 C25.5,12.7 25.2,12.6 24.9,12.6 C25.4,12.3 25.7,11.9 26.4,11.9 C27.3,11.9 27.3,12.4 27.9,12.2 C28,12.6 25.4,13.8 24.7,12.8" fill="#0B9E5C"></path>
                        <path d="M23.5,12.6 C23.9,12.7 24.3,13.5 24.8,14 C24.1,13.8 23.8,14 23.2,13.5 C22.7,13.1 22.8,12.9 22.8,12.7 C23.1,12.6 23.3,12.4 23.5,12.2 C23.2,12.4 22.9,12.5 22.6,12.5 C22.8,12.4 22.9,12.4 23.2,11.9 C24,11.1 24.4,11.6 25.4,11.3 C25.2,11.7 24.1,12.5 23.5,12.6" fill="#0B9E5C"></path>
                        <path d="M21.4,12.8 C21.8,12.9 22.3,13.5 22.9,13.9 C22.2,13.8 21.9,14.1 21.2,13.7 C20.7,13.4 20.8,13.2 20.7,13 C21,12.8 21.1,12.6 21.3,12.3 C21.1,12.5 20.7,12.7 20.4,12.8 C20.6,12.6 20.7,12.6 20.9,12.1 C21.6,11.2 21.9,11.5 22.9,11.1 C22.9,11.6 22,12.6 21.4,12.8" fill="#0B9E5C"></path>
                        <path d="M20,14.1 C19.3,14.1 19,14.4 18.3,14.1 C17.8,13.9 17.8,13.7 17.7,13.5 C18,13.3 18.1,13.1 18.3,12.8 C18.1,13 17.7,13.2 17.4,13.4 C17.6,13.2 17.7,13.3 17.9,12.6 C18.6,11.6 19,11.9 20,11.4 C20,11.7 19.1,12.9 18.4,13.2 C18.8,13.2 19.4,13.8 20,14.1" fill="#0B9E5C"></path>
                        <path d="M40.8,27.3 C40.7,28.3 41.2,28.6 40.6,29.6 C40.1,29.9 40.2,30.1 40.1,30.3 C40.1,30 40.1,29.6 40.3,29.3 C40.1,29.5 40,29.8 39.9,30.1 C39.7,30 39.5,30.1 39.1,29.7 C38.5,29.2 38.7,28.8 38.3,28.1 C38.9,28.6 39.7,28.9 39.9,29.3 C39.8,28.6 40.5,27.3 40.8,27.3" fill="#0B9E5C"></path>
                        <path d="M39.3,27.2 C39.2,26.5 39.6,25.3 39.9,25.1 C40,26.1 40.6,26.4 40.1,27.4 C39.7,27.8 39.8,27.9 39.7,28.1 C39.6,27.8 39.6,27.4 39.7,27.1 C39.6,27.3 39.5,27.6 39.4,27.9 C39.2,27.9 39,28 38.5,27.7 C37.8,27.3 37.9,26.8 37.5,26.2 C38.2,26.6 39,26.8 39.3,27.2" fill="#0B9E5C"></path>
                        <path d="M38.5,22.3 C38.6,23.3 39.2,23.6 38.7,24.6 C38.3,25 38.4,25.1 38.3,25.3 C38.2,25 38.2,24.6 38.3,24.3 C38.2,24.5 38,24.8 38,25.1 C37.8,25.1 37.6,25.2 37.1,24.8 C36.4,24.3 36.5,23.9 36.1,23.3 C36.7,23.7 37.6,23.9 37.9,24.3 C37.8,23.6 38.2,22.4 38.5,22.3" fill="#0B9E5C"></path>
                        <path d="M37.2,20.2 C37.5,21.1 38.1,21.4 37.8,22.4 C37.4,22.8 37.6,23 37.5,23.2 C37.4,22.9 37.3,22.6 37.3,22.2 C37.2,22.5 37.1,22.7 37.2,23 C37,23 36.9,23.1 36.3,22.8 C35.5,22.4 35.5,22 35,21.4 C35.7,21.7 36.6,21.9 36.9,22.2 C36.7,21.7 36.9,20.4 37.2,20.2" fill="#0B9E5C"></path>
                        <path d="M35.3,17.5 C35.7,18.5 36.1,18.4 36,19.6 C35.8,20.2 35.9,20.3 35.9,20.6 C35.7,20.3 35.6,19.9 35.5,19.6 C35.5,19.9 35.5,20.2 35.6,20.6 C35.4,20.6 35.3,20.9 34.8,20.7 C34.1,20.5 34,20 33.5,19.6 C34.2,19.7 35,19.6 35.3,19.9 C35,19.1 35.1,17.7 35.3,17.5" fill="#0B9E5C"></path>
                        <path d="M33.7,18 C33.3,17.4 33.2,16.1 33.5,15.8 C34,16.7 34.4,16.5 34.4,17.7 C34.3,18.3 34.4,18.4 34.4,18.6 C34.2,18.3 34,18 33.9,17.7 C33.9,18 33.9,18.3 34.1,18.6 C33.9,18.7 33.9,18.9 33.3,18.8 C32.5,18.7 32.4,18.3 31.8,17.9 C32.6,18 33.3,17.8 33.7,18" fill="#0B9E5C"></path>
                        <path d="M31.1,13.7 C31.7,14.5 32.3,14.5 32.4,15.7 C32.2,16.3 32.4,16.4 32.4,16.6 C32.2,16.3 32,16 31.9,15.7 C31.9,16 32,16.3 32.1,16.6 C31.9,16.7 31.9,16.9 31.3,16.9 C30.5,16.9 30.4,16.5 29.8,16.1 C30.5,16.1 31.3,15.8 31.7,16 C31.2,15.4 30.9,14 31.1,13.7" fill="#0B9E5C"></path>
                        <path d="M30.5,13.9 C30.4,14.6 30.6,14.5 30.7,14.8 L30.5,14.8 C30.3,14.5 30,14.2 29.9,14.1 C30,14.6 30,14.8 30.2,15.1 C30.1,15.2 30,15.3 29.7,15.3 C28.7,15.4 28.6,15.1 28.2,14.9 C28.8,14.6 29.1,14.3 29.7,14.5 C29.7,14.4 29.7,14.4 29.6,14.3 L29.6,14.3 L29.6,14.3 C29.5,14.1 29.3,13.9 29.1,13.6 C28.8,13.1 28.6,12.6 28.7,12.4 C29.5,13.1 30.2,12.8 30.5,13.9" fill="#0B9E5C"></path>
                        <path d="M13,14.8 C13.3,13.7 13.9,13.9 14.5,13.2 C14.7,13.5 14.2,14.8 13.7,15.3 C14.1,15.2 14.8,15.6 15.6,15.7 C14.9,15.9 14.7,16.3 14,16.2 C13.4,16.1 13.4,15.9 13.2,15.8 C13.4,15.6 13.5,15.3 13.5,15 C13.4,15.3 13.1,15.5 12.9,15.7 C12.9,15.4 13,15.4 13,14.8" fill="#0B9E5C"></path>
                        <path d="M11.3,16.2 C11.4,15.1 12,15.1 12.6,14.3 C12.8,14.6 12.5,16 12.1,16.6 C12.5,16.4 13.2,16.6 13.9,16.7 C13.3,17 13.2,17.4 12.4,17.4 C11.8,17.4 11.7,17.2 11.6,17.1 C11.7,16.8 11.8,16.5 11.8,16.2 C11.7,16.5 11.5,16.8 11.3,17.1 C11.3,16.8 11.5,16.8 11.3,16.2" fill="#0B9E5C"></path>
                        <path d="M9.4,17.8 C9.5,16.6 9.8,16.7 10.3,15.8 C10.5,16.1 10.4,17.5 10.1,18 C10.5,17.8 11.2,18 11.9,18 C11.3,18.4 11.2,18.8 10.5,18.9 C9.9,18.9 9.8,18.7 9.7,18.7 C9.8,18.4 9.8,18.1 9.8,17.8 C9.7,18.1 9.6,18.5 9.3,18.7 C9.4,18.4 9.5,18.4 9.4,17.8" fill="#0B9E5C"></path>
                        <path d="M8.5,17.6 C8.7,17.9 8.8,19.3 8.4,19.9 C8.8,19.6 9.5,19.7 10.2,19.6 C9.6,20 9.6,20.5 8.9,20.7 C8.4,20.8 8.2,20.6 8.1,20.6 C8.2,20.3 8.2,20 8.2,19.7 C8.1,20 8,20.4 7.8,20.7 C7.8,20.5 7.9,20.4 7.7,19.8 C7.7,18.6 8.1,18.6 8.5,17.6" fill="#0B9E5C"></path>
                        <path d="M6.7,20.4 C7,20.5 7.2,21.8 6.9,22.5 C7.2,22.2 8.1,22 8.8,21.7 C8.3,22.3 8.3,22.7 7.5,23.1 C6.9,23.4 6.8,23.2 6.6,23.3 C6.6,23 6.6,22.7 6.5,22.5 C6.5,22.8 6.4,23.2 6.3,23.5 C6.3,23.3 6.4,23.2 6,22.7 C5.7,21.6 6.4,21.3 6.7,20.4" fill="#0B9E5C"></path>
                        <path d="M5.1,24.7 C4.6,23.7 5.2,23.4 5.3,22.5 C5.6,22.6 6.1,23.8 5.9,24.5 C6.2,24.1 7,23.9 7.7,23.5 C7.3,24.1 7.4,24.5 6.7,25 C6.2,25.4 6,25.2 5.8,25.3 C5.8,25 5.7,24.8 5.5,24.5 C5.6,24.8 5.6,25.1 5.5,25.4 C5.5,25.2 5.6,25 5.1,24.7" fill="#0B9E5C"></path>
                        <path d="M4.2,25.2 C4.5,25.3 4.9,26.5 4.8,27.2 C5.1,26.8 5.9,26.6 6.6,26.3 C6.1,26.9 6.3,27.3 5.6,27.7 C5,28 4.8,27.9 4.6,28 C4.6,27.7 4.5,27.5 4.3,27.2 C4.4,27.5 4.3,27.8 4.3,28.2 C4.2,28 4.4,27.8 3.9,27.5 C3.5,26.4 4.1,26.1 4.2,25.2" fill="#0B9E5C"></path>
                        <path d="M3.5,29.5 C2.9,28.6 3.4,28.2 3.3,27.3 C3.6,27.3 4.3,28.5 4.3,29.2 C4.5,28.8 5.3,28.5 5.8,28 C5.5,28.7 5.7,29 5.1,29.6 C4.6,30 4.4,29.9 4.2,30 C4.1,29.7 4,29.5 3.8,29.3 C4,29.5 4,29.9 4,30.2 C3.9,30 4,29.9 3.5,29.5" fill="#0B9E5C"></path>
                        <path d="M2.5,30.2 C2.8,30.3 3.5,31.5 3.5,32.2 C3.7,31.8 4.5,31.5 5,31.1 C4.7,31.8 4.9,32.1 4.3,32.6 C3.8,33 3.6,32.9 3.5,32.9 C3.4,32.6 3.3,32.4 3.1,32.1 C3.2,32.4 3.3,32.7 3.3,33.1 C3.2,32.9 3.3,32.8 2.8,32.4 C2.1,31.5 2.5,31.2 2.5,30.2" fill="#0B9E5C"></path>
                        <path d="M3.5,35 C3.4,34.7 3.2,34.5 3,34.3 C3.2,34.6 3.3,34.9 3.3,35.2 C3.2,35 3.2,34.9 2.7,34.6 C1.9,33.7 2.2,33.5 2,32.5 C2.3,32.5 3.3,33.6 3.4,34.2 C3.5,33.8 4.2,33.4 4.7,32.9 C4.5,33.6 4.8,33.9 4.3,34.5 C3.9,35 3.6,34.9 3.5,35" fill="#0B9E5C"></path>
                        <path d="M1.9,35.5 C2.2,35.6 3.2,36.6 3.3,37.3 C3.4,36.9 4.1,36.5 4.5,36 C4.3,36.7 4.6,37 4.1,37.6 C3.8,38.1 3.5,37.9 3.4,38 C3.3,37.7 3.1,37.5 2.9,37.3 C3.1,37.6 3.2,37.9 3.3,38.2 C3.1,38 3.2,37.9 2.7,37.6 C1.9,36.8 2.2,36.5 1.9,35.5" fill="#0B9E5C"></path>
                        <path d="M1.8,38.4 C2.1,38.4 3.1,39.3 3.4,39.9 C3.4,39.5 4,39 4.4,38.4 C4.4,39.1 4.7,39.5 4.3,40.1 C4,40.6 3.8,40.5 3.7,40.6 C3.5,40.4 3.2,40.2 3,40 C3.2,40.2 3.4,40.6 3.5,40.9 C3.3,40.7 3.4,40.6 2.8,40.3 C1.4,39.1 2.8,40.8 1.8,38.4" fill="#0B9E5C"></path>
                        <path d="M3.5,42.7 C3.5,42.3 4.2,41.6 4.6,40.9 C4.5,41.6 4.8,42 4.4,42.7 C4.1,43.3 3.9,43.3 3.8,43.4 C3.6,43.2 3.5,43 3.2,42.8 C3.4,43 3.5,43.4 3.6,43.7 C3.4,43.5 3.5,43.4 2.9,43.2 C2.1,42.6 2.5,42.3 2.1,41.4 C2.5,41.3 3.3,42.1 3.5,42.7" fill="#0B9E5C"></path>
                        <path d="M2.3,43.6 C2.6,43.5 3.7,44.2 4,44.9 C4,44.5 4.5,43.7 4.8,43 C4.8,43.7 5.2,44 4.9,44.8 C4.7,45.4 4.5,45.4 4.4,45.6 C4.2,45.4 4,45.2 3.7,45.1 C4,45.3 4.1,45.6 4.3,45.9 C4,45.7 4,45.5 3.5,45.5 C2.5,45 2.8,44.4 2.3,43.6" fill="#0B9E5C"></path>
                        <path d="M5,47.6 C5,47.2 5.5,46.4 5.8,45.7 C5.8,46.4 6.2,46.7 5.9,47.5 C5.7,48.1 5.5,48.1 5.4,48.3 C5.2,48.1 5,48 4.7,47.8 C4.9,48 5,48.3 5.2,48.6 C5,48.5 5,48.3 4.4,48.3 C3.4,47.8 3.7,47.2 3.2,46.4 C3.5,46.3 4.7,47 5,47.6" fill="#0B9E5C"></path>
                        <path d="M3.8,48.6 C4.1,48.4 5.4,49 5.8,49.5 C5.7,49.1 6.1,48.3 6.2,47.6 C6.4,48.3 6.8,48.5 6.6,49.3 C6.5,49.9 6.3,49.9 6.2,50.1 C6,49.9 5.7,49.8 5.4,49.8 C5.7,50 5.9,50.2 6.1,50.4 C6,50.3 6,50.1 5.4,50.2 C4.3,49.9 4.5,49.3 3.8,48.6" fill="#0B9E5C"></path>
                        <path d="M5.1,51.1 C5.4,50.9 6.7,51.5 7.1,52.1 C7,51.7 7.4,51 7.6,50.3 C7.7,51 8.1,51.2 8,52 C7.9,52.6 7.7,52.6 7.6,52.7 C7.4,52.5 7.1,52.4 6.8,52.3 C7,52.4 7.2,52.7 7.4,53 C7.2,52.9 7.2,52.7 6.6,52.8 C5.5,52.4 5.7,51.8 5.1,51.1" fill="#0B9E5C"></path>
                        <path d="M6,53.1 C6.3,52.9 7.7,53.3 8.2,53.7 C8,53.4 8.3,52.7 8.4,52 C8.7,52.7 9.1,52.8 9.1,53.6 C9.1,54.2 8.8,54.2 8.8,54.4 C8.6,54.3 8.2,54.2 8,54.2 C8.3,54.3 8.6,54.5 8.8,54.7 C8.6,54.6 8.5,54.5 7.9,54.6 C6.7,54.3 6.8,53.8 6,53.1" fill="#0B9E5C"></path>
                        <path d="M7.3,55.3 C7.6,55.1 9,55.6 9.5,56.1 C9.3,55.7 9.7,55 9.8,54.3 C10,55 10.5,55.1 10.4,55.9 C10.4,56.5 10.1,56.5 10.1,56.7 C9.8,56.5 9.5,56.5 9.2,56.4 C9.5,56.5 9.8,56.8 10,57 C9.8,56.9 9.7,56.7 9.1,56.8 C8,56.5 8.1,56 7.3,55.3" fill="#0B9E5C"></path>
                        <path d="M12.4,58.9 C12.2,58.7 11.9,58.5 11.5,58.6 C10.3,58.5 10,57.7 9.1,57.2 C9.4,57 10.9,57.3 11.5,57.7 C11.3,57.3 11.5,56.6 11.4,55.9 C11.8,56.5 12.2,56.6 12.3,57.3 C12.4,57.9 12.4,58.3 12.5,58.6 C12.3,58.4 12.1,58.3 11.8,58.1 C12,58.4 12.2,58.7 12.4,58.9" fill="#0B9E5C"></path>
                        <path d="M32.7,58.8 C32.2,58.7 31.8,59 31.6,59.2 C31.8,58.9 32,58.6 32.3,58.4 C32.1,58.4 31.8,58.6 31.6,58.7 C31.6,58.4 31.6,58.1 31.7,57.6 C31.8,56.9 32.3,56.8 32.7,56.2 C32.6,56.9 32.8,57.6 32.6,58 C33.2,57.6 34.7,57.3 35,57.5 C33.9,58.1 33.9,58.7 32.7,58.8" fill="#0B9E5C"></path>
                        <path d="M34.6,57.2 C34,57.1 33.9,57.3 33.7,57.4 C34,57.2 34.2,57 34.6,56.8 C34.3,56.9 34,57 33.7,57.1 C33.6,56.9 33.4,56.9 33.4,56.3 C33.4,55.6 33.8,55.4 34.1,54.7 C34.2,55.4 34.5,56.1 34.3,56.5 C34.8,56 36.3,55.5 36.6,55.7 C35.7,56.4 35.8,57 34.6,57.2" fill="#0B9E5C"></path>
                        <path d="M36,55 C35.4,54.9 35.3,55 35.1,55.1 C35.4,54.9 35.6,54.6 36,54.5 C35.7,54.5 35.4,54.6 35.1,54.7 C35,54.5 34.8,54.5 34.8,53.9 C34.8,53.1 35.2,53 35.5,52.3 C35.6,53 35.9,53.8 35.7,54.2 C36.2,53.7 37.6,53.3 37.9,53.5 C37.1,54.2 37.2,54.8 36,55" fill="#0B9E5C"></path>
                        <path d="M37.3,53.2 C36.7,53.2 36.7,53.3 36.5,53.4 C36.7,53.1 36.9,52.9 37.2,52.7 C36.9,52.8 36.6,52.9 36.4,53 C36.3,53 36,53 35.9,52.4 C35.7,51.6 36.1,51.4 36.3,50.7 C36.5,51.4 36.9,52.1 36.8,52.6 C37.2,52 38.5,51.4 38.8,51.6 C38.2,52.3 38.4,52.9 37.3,53.2" fill="#0B9E5C"></path>
                        <path d="M38.7,50.6 C38.1,50.5 38.1,50.7 37.9,50.8 C38.1,50.5 38.3,50.3 38.6,50.1 C38.3,50.2 38,50.3 37.8,50.4 C37.7,50.2 37.5,50.2 37.4,49.6 C37.3,48.8 37.6,48.6 37.8,47.9 C38,48.6 38.4,49.4 38.3,49.8 C38.7,49.2 40,48.7 40.3,48.9 C39.6,49.7 39.8,50.3 38.7,50.6" fill="#0B9E5C"></path>
                        <path d="M39.7,48.6 C39.1,48.6 39.1,48.8 38.9,48.9 C39,48.6 39.2,48.3 39.5,48.1 C39.2,48.2 39,48.3 38.8,48.6 C38.7,48.5 38.5,48.4 38.3,47.8 C38,47 38.4,46.8 38.4,46 C38.7,46.7 39.2,47.4 39.2,47.8 C39.5,47.2 40.7,46.5 41,46.6 C40.4,47.6 40.6,48.2 39.7,48.6" fill="#0B9E5C"></path>
                        <path d="M40.7,45.8 C40.1,45.9 40.1,46 39.9,46.1 C40,45.8 40.2,45.5 40.5,45.3 C40.2,45.4 40,45.5 39.8,45.8 C39.7,45.7 39.5,45.7 39.2,45 C38.9,44.2 39.3,43.9 39.3,43.2 C39.6,43.9 40.1,44.6 40.1,45.1 C40.4,44.5 41.5,43.7 41.8,43.9 C41.3,44.7 41.6,45.3 40.7,45.8" fill="#0B9E5C"></path>
                        <path d="M36,49.5 C36,49.5 33,50 29.2,47.5 C29.5,47.1 29.6,46.1 29.5,45.5 C29.4,45 29.4,45.4 29.3,45.7 C28.9,46.6 28.7,46.7 28.3,47 C27.2,45.9 27,45.9 25.6,45 C24.6,44.4 24.5,44.1 23.9,43.7 C22.9,44.2 21.4,45.1 20.6,44.5 C20,44.2 21.4,43.8 21.9,43 C22.4,42.3 23,42.1 23.8,42.3 C25.3,42.6 26.1,43.2 28.4,44.1 C31.2,44.3 33.2,45.1 36,45.7 C36.5,45.8 37.2,45.9 37.5,45.9 C37.1,47.2 36.7,48 36,49.5" fill="#EFB780"></path>
                        <path d="M23.9,46.5 C24.7,47.4 25.5,47.6 26,48.7 C25.8,49 25.5,49.1 25.1,48.9 C23.9,47.5 22.7,47.3 23.2,46.6 C22.9,46.6 22.7,46.9 22.8,47.1 C23,48.1 24.1,48.5 24.5,49.3 C24.3,50 23,49.4 22.4,47.6 L22.4,47.5 C22.1,48 21.9,48.2 22.8,49.3 C23,49.7 23.1,50.1 22.5,50 C22.6,50.1 22.2,50 22.4,50 L22.5,50 C22.5,50 22.4,50 22.4,49.9 C22.7,48.2 21.1,48.5 21.2,48.5 C21.4,47.9 20.5,47.3 19.7,47.7 C19.8,47.2 18.9,46.5 17.6,47 C17.4,46.5 16.2,46.1 15.1,47.5 C13.1,47.7 9.8,49.4 7.9,48.5 C7.8,48.6 6.7,45.3 6.6,45.2 C8.9,45 14.1,44.6 15.9,43.8 C17.4,42.9 20.1,42.4 20.7,42.7 C20.6,43.2 19.5,44.1 20.1,44.6 C21.1,45.6 22.8,45.1 23.9,44.5 C25,45.7 26.9,45.9 27.6,47.4 L27.4,47.9 C27,48.2 27,48.2 26.5,47.5 C25.4,46 24.4,46.4 24.2,45.3 C23.6,45.8 23.9,46.2 23.9,46.5" fill="#EFB780"></path>
                        <path d="M18.5,49.5 C18.1,49.7 18.7,49.2 18.8,49.1 L19,48.9 C19.3,48.6 19.8,48.2 20.1,48.8 C20.3,49.2 18.9,50 18.7,50 C18.5,50.1 18.4,50.1 18.3,49.9 C18.2,49.7 18.3,49.6 18.5,49.5" fill="#EFB780"></path>
                        <path d="M17.3,49.3 C17.1,49.4 16.9,49.4 16.7,49.2 C16.6,49 17,48.5 17.2,48.3 C17.4,48.1 17.5,48.1 17.5,48.1 L17.8,47.9 C18.3,47.8 18.3,47.9 18.4,48.1 C18.5,48.3 17.6,49.3 17.3,49.3" fill="#EFB780"></path>
                        <path d="M20.6,49.6 C20.6,49.6 21.2,49 21.4,49.8 C21.5,50.1 20.9,50.5 20.3,50.7 C20.1,50.5 19.4,50.5 20.6,49.6" fill="#EFB780"></path>
                        <path d="M16,48.4 C15.8,48.5 15.4,48.1 15.6,48 L15.8,47.6 C16.2,47.5 16.4,47.3 16.5,47.5 C16.6,47.7 16.1,48.3 16,48.4" fill="#EFB780"></path>
                        <path d="M22,14.8 C12.9,14.8 5.5,24.4 5.2,36.5 L38.9,36.5 C38.5,24.5 31.1,14.8 22,14.8" fill="#168FBA"></path>
                        <path d="M23,41.5 L23,31.9 C23,31.9 26.3,32 27,31.8 C27,31.8 28.2,31.3 28.4,30.3 C28.5,29.6 28,27.5 27.9,27.1 C27.9,27.1 27.3,26.7 27.3,26.2 C27.3,26.2 27,22.6 26.2,21.5 C25.5,20.5 24.4,19.3 21.9,19.3 C19.5,19.3 18.3,20.9 18.1,22 C17.9,23.4 19.4,23.4 19.4,23.4 C19.4,23.4 18.7,24 18.5,24.3 C18.3,24.6 17.7,25.2 17,26.4 C16.3,27.6 15.9,29.6 16.2,30.2 C16.5,30.8 17.6,31.6 18.9,31.8 C20.2,31.9 21.1,31.7 21.1,31.7 L21.1,41.2 L23,41.5 L23,41.5 Z" fill="#231F20"></path>
                        <path d="M19.4,28.4 C18.4,28.4 18,28.9 17.2,29 C17.2,29 17.4,27.2 19.1,25.1 C19.8,24.3 21.5,23.4 22.4,23 L22.4,22.8 C21.6,22.9 19.6,23.3 19.1,22.4 C19,21.5 20.2,20.5 21.9,20.4 C22.9,20.4 23.7,20.7 24.5,21.2 C25.4,21.8 25.8,22.9 26,23.9 C24.8,24.4 24.6,24.6 24.4,24.7 C24.6,24.7 24.8,24.8 25.2,24.8 C25.6,24.8 25.9,24.7 26.1,24.7 L26.1,25.3 C26.2,25.4 26.3,25.5 26.3,25.6 C24.3,26.5 23.3,26.9 23.1,26.8 C23.1,26.8 23.5,26.9 23.9,26.9 C24.6,26.9 25.6,26.6 26.3,26.4 C26.3,26.8 26.3,27.1 26.9,27.3 L26.9,27.3 L26.9,27.3 C24.8,28.4 24.1,28.3 23.9,28.2 L22.4,27.9 C22.8,28 23.6,28.7 24.3,28.9 C25,29 26.4,28.4 27.1,28.2 L27.4,29.1 C26.2,29.1 24.8,30.9 23,30.2 C21.9,29.5 20.7,28.4 19.4,28.4" fill="#D93E26"></path>
                        <path d="M21.1,30.9 C20.2,30.9 18.7,30.9 18.7,30.8 C18.2,30.7 17,30 17.2,29.9 C17.3,29.9 17.6,30 18.7,29.5 C20,29 21.1,30.6 21.1,30.9" fill="#D93E26"></path>
                        <path d="M27.5,29.9 C27.4,30.2 27.1,30.8 26.8,30.9 L24.7,30.9 C25.2,30.9 25.5,30.7 25.8,30.6 C27.7,29.6 27.5,29.9 27.5,29.9" fill="#D93E26"></path>
                        <path d="M21,65.2 C21.1,64.9 21,64.5 21,64.5 C21,64.5 20.3,65.5 19.4,66 C18.6,66.5 17.2,66.8 17,66.8 C17.2,67 17.4,67.2 17.6,67.3 C17.8,67.3 18.9,67.2 19.9,66.5 C20.5,66.2 21,65.2 21,65.2" fill="#FFFFFF"></path>
                        <path d="M23.1,65.2 C23,64.9 23.1,64.5 23.1,64.5 C23.1,64.5 23.8,65.5 24.7,66 C25.5,66.5 26.9,66.8 27.1,66.8 C27.5,66.4 27.8,66.1 27.8,66.1 C27.8,66.1 26.5,65.9 25.3,65.6 C24.1,65.2 23.5,64.5 23.4,64.2 C23.3,64 23.5,63.4 23.7,63.3 C23.9,63.1 25.9,63 25.8,61.3 C25.7,59.3 22.4,59.8 21.9,59.9 C21.5,59.8 18.1,59.2 18.1,61.3 C18,63 20.1,63.2 20.2,63.3 C20.4,63.5 20.6,64 20.5,64.2 C20.4,64.4 19.9,65.2 18.7,65.6 C17.5,66 16.2,66.1 16.2,66.1 C16.2,66.1 16.5,66.5 16.8,66.8 C17,66.7 18.4,66.4 19.2,66 C20.1,65.4 20.8,64.5 20.8,64.5 C20.8,64.5 21,64.9 20.8,65.2 C20.8,65.2 20.3,66.2 19.6,66.6 C18.6,67.3 17.5,67.3 17.3,67.4 C17.6,67.6 18,67.8 18.3,67.8 C20.4,67.7 21.2,65.4 21.2,65.4 C21.2,65.4 21.5,65.6 21.8,65.6 L21.8,65.6 L21.8,65.6 C22.1,65.6 22.4,65.4 22.4,65.4 C22.4,65.4 23.2,67.8 25.3,67.8 C25.6,67.8 26,67.6 26.3,67.4 C26,67.4 25,67.2 24,66.6 C23.6,66.2 23.1,65.2 23.1,65.2" fill="#168FBA"></path>
                        <path d="M27.2,66.8 C26.9,66.7 25.6,66.4 24.8,66 C23.9,65.4 23.2,64.5 23.2,64.5 C23.2,64.5 23.1,64.9 23.2,65.2 C23.2,65.2 23.7,66.2 24.4,66.6 C25.4,67.2 26.4,67.3 26.7,67.4 L26.7,67.4 C26.8,67.2 27,67 27.2,66.8" fill="#FFFFFF"></path>
                        <path d="M20.5,60.5 C20.5,60.5 20,60.9 19.9,61.4 C19.8,61.9 20,62.4 20,62.4 C20,62.4 18.9,62 19,61.3 C19,60.2 20.5,60.5 20.5,60.5" fill="#FFFFFF"></path>
                        <path d="M23.7,60.5 C23.7,60.5 24.2,60.9 24.3,61.4 C24.4,61.9 24.2,62.4 24.2,62.4 C24.2,62.4 25.3,62 25.3,61.3 C25.1,60.2 23.7,60.5 23.7,60.5" fill="#FFFFFF"></path>
                        <path d="M22.1,60.9 L22,60.9 C20.1,60.9 21.2,62.6 21.2,62.6 C21.2,62.6 21.5,62.4 22,62.4 L22.2,62.4 C22.7,62.4 23,62.6 23,62.6 C23,62.6 24,60.9 22.1,60.9" fill="#FFFFFF"></path>
                        <path d="M22.2,63.2 L22.1,63.2 L22.1,63.2 L22,63.2 C21.5,63.2 21.5,63.5 21.5,63.7 C21.5,63.9 21.6,65 22,65 L22,65 L22.1,65 C22.5,65 22.6,64 22.6,63.7 C22.6,63.4 22.7,63.2 22.2,63.2" fill="#FFFFFF"></path>
                    </g>
                </g>
            </g>
        </g>
    </g>
</svg>